<svg width="22" height="22" viewBox="0 0 22 22" fill="none" xmlns="http://www.w3.org/2000/svg">
<path d="M0.666687 0.666626L1.52383 3.52377M1.52383 3.52377L4.9524 14.9523H20.6667V6.38091C20.6667 4.80296 19.3875 3.52377 17.8095 3.52377H1.52383ZM17.8095 20.6666C17.0206 20.6666 16.381 20.027 16.381 19.2381C16.381 18.4491 17.0206 17.8095 17.8095 17.8095C18.5985 17.8095 19.2381 18.4491 19.2381 19.2381C19.2381 20.027 18.5985 20.6666 17.8095 20.6666ZM6.38097 19.2381C6.38097 18.4491 7.02057 17.8095 7.80954 17.8095C8.59852 17.8095 9.23812 18.4491 9.23812 19.2381C9.23812 20.027 8.59852 20.6666 7.80954 20.6666C7.02057 20.6666 6.38097 20.027 6.38097 19.2381Z" stroke="#30CE53"/>
</svg>
