<svg width="103" height="100" viewBox="0 0 103 100" fill="none" xmlns="http://www.w3.org/2000/svg">
<path d="M52.7457 2.14844C29.198 2.14844 10.11 20.8301 10.11 43.873C10.1019 50.2228 11.5802 56.4904 14.432 62.1979C17.2839 67.9055 21.434 72.9021 26.5658 76.8066H26.6359V71.2129C30.838 74.1489 35.529 76.3533 40.5015 77.7285L62.3197 78.3203L62.3337 78.3867L78.0028 77.4922C78.3151 77.2676 78.6214 77.0391 78.9256 76.8066C84.0574 72.9021 88.2075 67.9055 91.0594 62.1979C93.9112 56.4904 95.3895 50.2228 95.3814 43.873C95.3814 20.8301 76.2934 2.14844 52.7457 2.14844Z" fill="#E5F5FD"/>
<path d="M38.0374 64.7714C36.7893 63.0161 35.9109 61.0364 35.4532 58.9472L34.6506 55.2968L34.5745 54.9492V44.1875H34.0601V39.5644C34.0607 37.8479 34.475 36.1555 35.2695 34.624C36.0641 33.0925 37.2165 31.7648 38.6339 30.748L38.2135 36.6914C41.6824 35.8457 45.4376 30.6679 46.6406 28.8886C46.6906 28.8143 46.7563 28.7513 46.8333 28.7039C46.9103 28.6564 46.9968 28.6255 47.087 28.6133C47.1772 28.6011 47.2691 28.6078 47.3564 28.6331C47.4438 28.6583 47.5245 28.7015 47.5934 28.7597C48.8201 29.795 50.312 30.4857 51.9098 30.7582C53.5075 31.0306 55.1511 30.8745 56.665 30.3066C61.0266 28.6738 65.9948 30.5566 67.9624 34.6914C68.8135 36.4826 69.2528 38.4338 69.2495 40.4082V46.1699H70.1302C70.5635 46.1692 70.9926 46.2522 71.3929 46.4141C71.7931 46.576 72.1565 46.8136 72.4622 47.1132C72.9237 47.5632 73.238 48.1367 73.3654 48.761C73.4928 49.3854 73.4276 50.0326 73.1779 50.6207C72.9283 51.2089 72.5055 51.7116 71.963 52.0652C71.4205 52.4188 70.7827 52.6075 70.1302 52.6074H69.2495L67.8583 58.9472C67.0866 62.4679 65.1307 65.6358 62.3017 67.9472C62.2256 68.0097 62.1496 68.0722 62.0715 68.1328C60.2992 69.53 58.2507 70.5556 56.0539 71.1457C53.8571 71.7357 51.5593 71.8774 49.3038 71.562C47.0484 71.2465 44.8838 70.4807 42.9453 69.3123C41.0069 68.144 39.3361 66.5982 38.0374 64.7714V64.7714Z" fill="#FFD8B7"/>
<path d="M46.7147 67.6973C44.0452 65.407 42.2022 62.339 41.4583 58.9473L40.6556 55.2969L40.5796 54.9493L40.3794 44.1876L40.2653 39.5645C40.2653 38.0606 40.3834 36.5958 40.9761 35.2505C40.0703 35.9383 39.1319 36.4676 38.2138 36.6915L38.6341 30.7481C37.2168 31.7649 36.0643 33.0926 35.2698 34.6241C34.4753 36.1556 34.061 37.848 34.0603 39.5645V44.1876H34.5747V54.9493L34.6508 55.2969L35.4535 58.9473C36.3558 63.0607 38.8662 66.6686 42.4513 69.0048C46.0364 71.341 50.4137 72.2213 54.6533 71.4587C51.7074 70.928 48.9639 69.6281 46.7147 67.6973V67.6973Z" fill="#EFC597"/>
<path d="M93.768 7.90039C94.633 8.74843 95.6894 9.3872 96.8526 9.76562C95.6894 10.1456 94.6329 10.7846 93.7667 11.6322C92.9005 12.4797 92.2486 13.5124 91.8624 14.6484C91.4764 13.5126 90.8247 12.4801 89.9589 11.6326C89.0931 10.7851 88.0371 10.1459 86.8743 9.76562C88.0369 9.38717 89.0926 8.74838 89.9568 7.90039C90.8234 7.05247 91.4759 6.01935 91.8624 4.88281C92.249 6.01935 92.9014 7.05247 93.768 7.90039V7.90039Z" fill="#3090FC"/>
<path d="M89.5526 87.3984V97.8516H15.939V87.3984C15.9348 84.6264 17.0459 81.9635 19.0333 79.9827C21.0206 78.0019 23.7255 76.8614 26.5659 76.8066C26.5879 76.8242 26.6119 76.8418 26.6359 76.8594V82.9102L26.6059 82.9512C34.087 88.1732 43.0293 91.0311 52.2269 91.1394C61.4246 91.2477 70.435 88.6011 78.043 83.5566L78.0029 83.498V77.4922C78.3152 77.2676 78.6215 77.0391 78.9257 76.8066C81.7661 76.8614 84.4709 78.0019 86.4583 79.9827C88.4457 81.9635 89.5568 84.6264 89.5526 87.3984V87.3984Z" fill="#50A6EA"/>
<path d="M78.003 83.4981L78.043 83.5566C70.435 88.6011 61.4246 91.2477 52.227 91.1394C43.0294 91.0311 34.087 88.1732 26.606 82.9512L26.636 82.9102V76.8594C33.9574 82.4128 42.9379 85.4801 52.2106 85.5944C61.4832 85.7086 70.5402 82.8635 78.003 77.4922V83.4981Z" fill="#475673"/>
<path d="M26.6359 76.8068V71.213C34.1007 76.4209 43.0208 79.2738 52.1967 79.388C61.3726 79.5022 70.3643 76.8722 77.9628 71.8517L78.0029 72.0333V77.4923C70.5401 82.8636 61.4831 85.7087 52.2104 85.5945C42.9378 85.4803 33.9573 82.413 26.6359 76.8595V76.8068Z" fill="#5F6A78"/>
<path d="M62.3197 78.3203V67.9687L62.3017 67.9473C62.2257 68.0098 62.1496 68.0723 62.0715 68.1328L40.5015 67.5781V77.7285C47.6147 79.6835 55.1104 79.9094 62.3337 78.3867L62.3197 78.3203Z" fill="#EFC597"/>
<path d="M11.9176 69.6874C12.569 70.7016 13.4538 71.5536 14.5018 72.1757C13.2821 72.294 12.1076 72.6882 11.0714 73.3269C10.0353 73.9657 9.16602 74.8314 8.53276 75.8553C8.41301 74.6635 8.01088 73.5151 7.35813 72.5009C6.70538 71.4867 5.81989 70.6345 4.77161 70.0116C5.9916 69.8936 7.16657 69.4996 8.20311 68.8608C9.23966 68.222 10.1092 67.3561 10.7426 66.3319C10.8623 67.5242 11.2645 68.6729 11.9176 69.6874Z" fill="#3090FC"/>
<path d="M72.8165 30.9843C73.6247 36.1514 73.0227 41.435 71.071 46.3027C70.7656 46.2146 70.4487 46.1699 70.1302 46.1699H69.2495V40.4081C69.2528 38.4338 68.8135 36.4826 67.9624 34.6913C65.9948 30.5566 61.0266 28.6738 56.665 30.3066C55.1511 30.8745 53.5075 31.0306 51.9098 30.7582C50.312 30.4857 48.8201 29.795 47.5934 28.7597C47.5245 28.7015 47.4438 28.6583 47.3564 28.6331C47.2691 28.6078 47.1772 28.601 47.087 28.6133C46.9968 28.6255 46.9103 28.6563 46.8333 28.7038C46.7563 28.7513 46.6906 28.8143 46.6406 28.8886C45.4376 30.6679 41.6824 35.8456 38.2135 36.6913L38.6339 30.748C37.2165 31.7648 36.0641 33.0925 35.2695 34.624C34.475 36.1555 34.0607 37.8479 34.0601 39.5644V44.1874H32.5928C32.1348 44.1868 31.6784 44.2406 31.2337 44.3476L31.1997 44.1953C29.9992 41.2898 29.3854 38.1854 29.3921 35.0527C29.3921 22.6015 38.8421 12.5097 50.4998 12.5097C54.7653 12.5193 58.9132 13.8753 62.3237 16.3749C62.5989 16.5749 62.8213 16.836 62.9723 17.1367C63.1238 17.4375 63.2026 17.7682 63.2024 18.1035C63.2023 18.5621 63.351 19.0091 63.6271 19.3803C63.9033 19.7515 64.2927 20.0279 64.7397 20.1699C64.7397 20.1699 67.8483 21.2148 67.9864 21.3945C68.9513 22.6484 72.3281 27.8593 72.8165 30.9843V30.9843Z" fill="#6D7486"/>
<path d="M34.5744 54.9492V55.3125H32.5848C31.0763 55.3107 29.6302 54.7247 28.5642 53.6831C27.4983 52.6416 26.8997 51.2297 26.9 49.7578V49.7422C26.8997 49.0126 27.0468 48.2902 27.3328 47.6162C27.6188 46.9421 28.0381 46.3297 28.5668 45.8138C29.0954 45.2979 29.7231 44.8888 30.4139 44.6097C31.1047 44.3307 31.8451 44.1872 32.5928 44.1875H34.5744V54.9492Z" fill="#ED6337"/>
<path d="M47.9336 66.1621C48.7185 66.1621 49.3548 65.5395 49.3548 64.7715C49.3548 64.0035 48.7185 63.3809 47.9336 63.3809C47.1487 63.3809 46.5125 64.0035 46.5125 64.7715C46.5125 65.5395 47.1487 66.1621 47.9336 66.1621Z" fill="#3090FC"/>
<path d="M16.115 43.873C16.115 21.8182 33.6021 3.76094 55.7482 2.25293C54.7562 2.18535 53.7554 2.14844 52.7457 2.14844C29.198 2.14844 10.11 20.8301 10.11 43.873C10.1019 50.2228 11.5802 56.4904 14.432 62.1979C17.2839 67.9055 21.434 72.9021 26.5658 76.8066H26.6359V71.3147C19.8372 63.7134 16.0986 53.9619 16.115 43.873Z" fill="#A6B7D0"/>
<path d="M26.6359 78.6682V76.8594C26.6119 76.8418 26.5879 76.8242 26.5659 76.8066C23.7255 76.8614 21.0206 78.0019 19.0332 79.9827C17.0459 81.9635 15.9348 84.6264 15.939 87.3984V97.8516H21.944V87.3984C21.9419 85.6811 22.368 83.989 23.1853 82.4681C24.0027 80.9472 25.187 79.6431 26.6359 78.6682V78.6682Z" fill="#72BCEF"/>
<path d="M45.1988 46.2059C44.8802 46.2059 44.5748 46.3294 44.3495 46.5492C44.1243 46.7689 43.9978 47.067 43.9978 47.3778C43.9978 47.7579 43.843 48.1225 43.5675 48.3912C43.2921 48.66 42.9185 48.811 42.5289 48.811C42.1394 48.811 41.7658 48.66 41.4903 48.3912C41.2148 48.1225 41.0601 47.7579 41.0601 47.3778C41.0601 47.067 40.9336 46.7689 40.7083 46.5492C40.4831 46.3294 40.1776 46.2059 39.8591 46.2059C39.5406 46.2059 39.2351 46.3294 39.0098 46.5492C38.7846 46.7689 38.6581 47.067 38.6581 47.3778C38.6581 48.3795 39.0659 49.3402 39.7918 50.0485C40.5177 50.7568 41.5023 51.1548 42.5289 51.1548C43.5555 51.1548 44.5401 50.7568 45.266 50.0485C45.9919 49.3402 46.3998 48.3795 46.3998 47.3778C46.3998 47.067 46.2732 46.7689 46.048 46.5492C45.8228 46.3294 45.5173 46.2059 45.1988 46.2059Z" fill="#284268"/>
<path d="M60.2922 51.1548C61.3185 51.1536 62.3024 50.7553 63.028 50.0473C63.7537 49.3392 64.1619 48.3792 64.1631 47.3778C64.1631 47.067 64.0365 46.7689 63.8113 46.5492C63.5861 46.3294 63.2806 46.2059 62.9621 46.2059C62.6435 46.2059 62.3381 46.3294 62.1128 46.5492C61.8876 46.7689 61.7611 47.067 61.7611 47.3778C61.7611 47.7579 61.6063 48.1225 61.3309 48.3912C61.0554 48.66 60.6818 48.811 60.2922 48.811C59.9027 48.811 59.5291 48.66 59.2536 48.3912C58.9782 48.1225 58.8234 47.7579 58.8234 47.3778C58.8234 47.067 58.6969 46.7689 58.4716 46.5492C58.2464 46.3294 57.9409 46.2059 57.6224 46.2059C57.3039 46.2059 56.9984 46.3294 56.7732 46.5492C56.5479 46.7689 56.4214 47.067 56.4214 47.3778C56.4226 48.3792 56.8307 49.3392 57.5564 50.0473C58.2821 50.7553 59.266 51.1536 60.2922 51.1548V51.1548Z" fill="#284268"/>
<path d="M20.7795 29.9467C20.6332 29.889 20.4768 29.86 20.319 29.8614C20.1613 29.8627 20.0054 29.8944 19.8602 29.9545C19.715 30.0146 19.5834 30.1021 19.4729 30.2119C19.3623 30.3217 19.275 30.4516 19.216 30.5943C17.4694 34.8135 16.5755 39.3225 16.5836 43.8728C16.5836 44.1836 16.7101 44.4817 16.9353 44.7015C17.1605 44.9212 17.466 45.0447 17.7846 45.0447C18.1031 45.0447 18.4086 44.9212 18.6338 44.7015C18.859 44.4817 18.9856 44.1836 18.9856 43.8728C18.9778 39.6233 19.8123 35.4124 21.4432 31.4721C21.5625 31.1839 21.5596 30.8613 21.4351 30.5752C21.3106 30.2892 21.0748 30.0631 20.7795 29.9467V29.9467Z" fill="#284268"/>
<path d="M19.5973 50.1698C19.5692 50.0172 19.5103 49.8715 19.424 49.7412C19.3378 49.6109 19.2259 49.4987 19.0948 49.4109C18.9638 49.3231 18.8161 49.2616 18.6605 49.23C18.5049 49.1983 18.3444 49.1971 18.1883 49.2264C18.0322 49.2557 17.8837 49.3149 17.7512 49.4007C17.6188 49.4864 17.5051 49.597 17.4167 49.7259C17.3284 49.8549 17.2672 49.9997 17.2366 50.1519C17.2061 50.3041 17.2068 50.4607 17.2387 50.6126C17.496 51.917 17.8285 53.2061 18.2346 54.474C18.3297 54.7706 18.5416 55.0182 18.8239 55.1623C19.1061 55.3065 19.4354 55.3353 19.7394 55.2425C20.0434 55.1497 20.2972 54.9429 20.4449 54.6675C20.5926 54.3921 20.6222 54.0708 20.5271 53.7741C20.148 52.5907 19.8376 51.3874 19.5973 50.1698V50.1698Z" fill="#284268"/>
<path d="M81.7853 76.025C82.4571 75.4391 83.1148 74.8348 83.7592 74.2041C91.9785 66.1462 96.5919 55.2395 96.5898 43.8707C96.5876 32.5019 91.9702 21.5968 83.7478 13.5418C77.6117 7.55393 69.7924 3.47775 61.2802 1.82962C52.768 0.181494 43.946 1.03557 35.9316 4.28366C27.9173 7.53175 21.0713 13.0277 16.2608 20.0754C11.4502 27.123 8.89164 35.4052 8.90912 43.8729C8.8876 49.5038 10.0089 55.0831 12.2083 60.2891C14.4077 65.4951 17.6418 70.2246 21.7238 74.2049C22.3678 74.8348 23.0449 75.4399 23.7235 76.0246C21.159 76.6979 18.8932 78.1768 17.2765 80.2327C15.6599 82.2886 14.7824 84.8069 14.7798 87.3983V97.8516C14.7751 98.0032 14.8015 98.1543 14.8574 98.2958C14.9134 98.4373 14.9979 98.5665 15.1058 98.6757C15.2137 98.7849 15.3429 98.8719 15.4859 98.9316C15.6288 98.9914 15.7825 99.0226 15.938 99.0235H89.5532C90.2164 99.0235 90.8435 98.4987 90.8435 97.8516V87.3983C90.8391 84.791 89.947 82.2591 88.3073 80.2004C86.6677 78.1418 84.3735 76.673 81.7853 76.025V76.025ZM11.2879 43.8729C11.2879 21.5121 29.8871 3.32033 52.734 3.32033C75.5809 3.32033 94.1887 21.5121 94.1887 43.8729C94.21 49.8257 92.88 55.7093 90.2943 61.1011C87.7086 66.4929 83.9313 71.2591 79.2338 75.0574V72.0338C79.2286 71.9504 79.2144 71.8677 79.1913 71.7871L79.1435 71.6057C79.1013 71.4181 79.0126 71.2434 78.8853 71.097C78.7579 70.9505 78.5958 70.8366 78.413 70.7654C78.2302 70.6941 78.0323 70.6675 77.8366 70.6881C77.6409 70.7086 77.4533 70.7755 77.2902 70.883C73.0667 73.6794 68.3719 75.7289 63.4205 76.9377V68.4627C66.2329 66.0247 68.18 62.7789 68.9816 59.1924L70.196 53.7785C71.1593 53.7625 72.0919 53.4451 72.8565 52.8731C73.621 52.301 74.1771 51.5046 74.4429 50.601C74.7087 49.6974 74.6702 48.7344 74.3329 47.8538C73.9957 46.9732 73.3776 46.2215 72.5696 45.7094C74.2897 40.9312 74.7813 35.814 74.0012 30.8071C73.4337 27.1793 69.6229 21.5711 68.9454 20.6899C68.714 20.3889 68.5873 20.2233 65.1312 19.06C65.1242 19.0576 65.1176 19.0553 65.1112 19.0531C64.9052 18.9884 64.7256 18.8614 64.5984 18.6906C64.4712 18.5198 64.4029 18.3139 64.4034 18.1028C64.4044 17.585 64.2817 17.0741 64.045 16.6106C63.8083 16.1472 63.4641 15.744 63.0398 15.433C59.4234 12.7817 55.0242 11.3445 50.5007 11.3365C38.1994 11.3377 28.1911 21.976 28.1911 35.0522C28.1839 37.9777 28.6941 40.8825 29.6993 43.6387C28.3681 44.242 27.2686 45.2436 26.5605 46.4981C25.8523 47.7526 25.5724 49.1947 25.7612 50.615C25.9501 52.0353 26.598 53.3599 27.6109 54.3965C28.6237 55.4331 29.9488 56.1277 31.3937 56.3795V62.0477C31.3937 64.1961 33.1708 66.0156 35.3675 66.0156H37.4292C37.9943 66.6016 38.5994 67.3758 39.1999 68.0194V76.1205C35.0582 74.8019 31.1426 72.8846 27.5839 70.4324C27.4692 70.2885 27.3215 70.1727 27.1528 70.0942C26.984 70.0157 26.7988 69.9768 26.612 69.9804C26.4251 69.9841 26.2416 70.0303 26.0763 70.1153C25.9109 70.2003 25.7681 70.3218 25.6593 70.4701L25.6065 70.5104C25.4334 70.7933 25.3569 71.1225 25.3883 71.4506V74.3426C20.9586 70.5294 17.4106 65.8406 14.9796 60.5875C12.5486 55.3343 11.2902 49.6368 11.2879 43.8729V43.8729ZM52.7378 84.4256C43.7332 84.4229 34.9749 81.5557 27.7907 76.2586V73.4246C35.0932 77.9852 43.5608 80.4546 52.2305 80.5519C60.9001 80.6492 69.4237 78.3705 76.8318 73.975V76.8731C69.8087 81.7895 61.3814 84.4311 52.7378 84.4256V84.4256ZM76.8318 79.7473V82.9584C69.5247 87.6323 60.9546 90.0724 52.2181 89.9664C43.4817 89.8603 34.9764 87.2131 27.7907 82.3633V79.1824C35.1969 84.1131 43.7077 86.7694 52.7378 86.7694C61.2993 86.773 69.6748 84.332 76.8318 79.7473V79.7473ZM47.9336 62.2537C46.9197 62.2537 46.0406 62.6953 45.6042 63.6719H38.6892C37.7247 62.152 37.0311 60.4836 36.6381 58.7375L35.7974 54.8242V44.1867C35.7998 43.9878 35.7447 43.7922 35.6385 43.6223C35.5323 43.4525 35.3793 43.3152 35.1969 43.2262V39.5651C35.2118 37.4769 35.9077 35.4477 37.1838 33.7713L36.9984 36.6112C36.9872 36.7962 37.0208 36.9812 37.0964 37.1513C37.172 37.3214 37.2875 37.4717 37.4336 37.5902C37.5797 37.7087 37.7523 37.792 37.9375 37.8334C38.1227 37.8748 38.3153 37.8731 38.4997 37.8285C39.7371 37.5268 43.0289 36.1633 47.2959 30.0356C48.6739 31.0601 50.2978 31.7235 52.0128 31.9625C53.7279 32.2015 55.4772 32.0082 57.0941 31.401C60.8898 29.9791 65.173 31.6408 66.859 35.1848C67.635 36.8213 68.0328 38.6041 68.0244 40.4072V46.169C68.0244 46.816 68.5869 47.2651 69.25 47.2651H70.1308C70.6882 47.2651 71.2228 47.4811 71.6169 47.8657C72.0111 48.2503 72.2325 48.7719 72.2325 49.3158C72.2325 49.8597 72.0111 50.3814 71.6169 50.766C71.2228 51.1506 70.6882 51.3666 70.1308 51.3666H69.25C68.972 51.3739 68.7046 51.4728 68.4914 51.6472C68.2783 51.8215 68.1318 52.0611 68.0758 52.327L66.6833 58.684C66.1299 61.1878 64.9302 63.5121 63.198 65.4365C61.4658 67.3609 59.2584 68.8217 56.7853 69.6802C54.3121 70.5387 51.6552 70.7664 49.0665 70.3419C46.4779 69.9174 44.0433 68.8547 41.9936 67.2545C41.4902 66.8576 41.0152 66.4063 40.57 66.0156H45.6046C45.834 66.4234 46.1709 66.764 46.5804 67.0021C46.99 67.2402 47.4573 67.3672 47.934 67.3699C48.6318 67.3648 49.2991 67.0905 49.7904 66.607C50.2816 66.1235 50.5569 65.4699 50.5562 64.7891C50.5557 64.4543 50.4873 64.1229 50.3551 63.8139C50.2228 63.505 50.0292 63.2247 49.7855 62.989C49.5417 62.7534 49.2526 62.5671 48.9348 62.4409C48.617 62.3147 48.2767 62.2511 47.9336 62.2537V62.2537ZM32.7949 39.5651V42.9688H32.5931C32.404 42.9688 32.217 43.0014 32.0327 43.016C31.0734 40.4655 30.586 37.769 30.5931 35.0522C30.5931 23.2684 39.5231 13.6815 50.4999 13.6815C54.5083 13.6904 58.4059 14.9659 61.6092 17.317C61.7328 17.4094 61.8327 17.5286 61.9008 17.6652C61.9689 17.8018 62.0034 17.952 62.0016 18.1039C62.0002 18.8085 62.2276 19.4954 62.6512 20.0661C63.0748 20.6367 63.6728 21.0617 64.3593 21.2801C65.4274 21.6397 66.6975 22.0926 67.1753 22.2957C68.4089 23.9713 71.2109 28.5567 71.619 31.1614C72.3196 35.6436 71.8292 40.2321 70.428 44.5219V40.4072C70.4375 38.2632 69.9639 36.1433 69.0407 34.1977C66.825 29.5406 61.2011 27.3512 56.2299 29.2127C54.9194 29.7051 53.4963 29.8406 52.1129 29.6047C50.7295 29.3688 49.4379 28.7704 48.3762 27.8735C48.1783 27.7064 47.9461 27.5825 47.6952 27.51C47.4442 27.4375 47.1803 27.4181 46.9211 27.4532C46.6619 27.4882 46.4133 27.5768 46.192 27.7131C45.9707 27.8493 45.7818 28.0301 45.6379 28.2434C43.9611 30.7225 41.6521 33.4678 39.5508 34.8102L39.832 30.8293C39.8478 30.6064 39.7979 30.3836 39.6883 30.1874C39.5786 29.9912 39.4137 29.8297 39.2131 29.7219C39.0068 29.6144 38.7739 29.5651 38.5405 29.5797C38.3071 29.5943 38.0825 29.6721 37.892 29.8043C36.3206 30.9302 35.0411 32.3994 34.156 34.0943C33.2709 35.7892 32.8048 37.6628 32.7949 39.5651V39.5651ZM33.3954 45.3125V54.1016H32.5931C31.3987 54.1016 30.2531 53.6386 29.4085 52.8145C28.5639 51.9903 28.0894 50.8726 28.0894 49.7071C28.0894 48.5416 28.5639 47.4238 29.4085 46.5997C30.2531 45.7755 31.3987 45.3125 32.5931 45.3125H33.3954ZM33.7957 56.95L34.2834 59.2289C34.6179 60.7757 35.1677 62.2706 35.9175 63.6719H35.3671C34.4949 63.6719 33.7953 62.9029 33.7953 62.0477L33.7957 56.95ZM61.0185 70.2301V77.4526C54.5778 78.6479 47.9451 78.4283 41.6023 76.8098V69.9219C44.5478 71.8472 48.0098 72.8821 51.555 72.8971C54.9039 72.8952 58.1843 71.9707 61.0185 70.2301ZM88.4415 96.6797H75.4306V91.5655C75.4306 91.2547 75.3041 90.9566 75.0788 90.7368C74.8536 90.517 74.5481 90.3936 74.2296 90.3936C73.9111 90.3936 73.6056 90.517 73.3804 90.7368C73.1551 90.9566 73.0286 91.2547 73.0286 91.5655V96.6797H32.5947V91.5655C32.5947 91.2547 32.4682 90.9566 32.243 90.7368C32.0177 90.517 31.7123 90.3936 31.3937 90.3936C31.0752 90.3936 30.7697 90.517 30.5445 90.7368C30.3193 90.9566 30.1927 91.2547 30.1927 91.5655V96.6797H17.1818V87.3983C17.1632 85.1386 17.9844 82.9488 19.4933 81.2345C21.0022 79.5202 23.0966 78.3975 25.3887 78.0742V82.6914C25.3887 83.1375 25.479 83.6205 25.8841 83.9035C33.5712 89.2651 42.7577 92.1992 52.2061 92.3106C61.6544 92.4219 70.9108 89.7051 78.7284 84.5262C79.1619 84.2381 79.2342 83.7221 79.2342 83.2539V78.0813C79.2688 78.0557 79.3018 78.0283 79.3365 78.0031C84.4143 78.351 88.4419 82.4305 88.4419 87.3977L88.4415 96.6797Z" fill="#284268"/>
<path d="M86.4924 10.8769C87.4774 11.2015 88.3719 11.7443 89.1059 12.4627C89.8399 13.181 90.3934 14.0555 90.723 15.0176C90.8026 15.2511 90.9555 15.4543 91.16 15.5982C91.3646 15.7422 91.6104 15.8197 91.8626 15.8197C92.1149 15.8197 92.3607 15.7422 92.5652 15.5982C92.7698 15.4543 92.9227 15.2511 93.0023 15.0176C93.3319 14.0555 93.8854 13.181 94.6194 12.4627C95.3534 11.7443 96.2479 11.2015 97.2328 10.8769C97.4717 10.799 97.6793 10.6497 97.8265 10.4503C97.9736 10.2509 98.0528 10.0114 98.0528 9.76562C98.0528 9.51988 97.9736 9.28037 97.8265 9.08094C97.6793 8.88151 97.4717 8.73226 97.2328 8.65429C96.2479 8.3297 95.3534 7.78695 94.6194 7.06857C93.8854 6.35019 93.3319 5.47571 93.0023 4.51367C92.9227 4.28013 92.7698 4.07698 92.5652 3.933C92.3607 3.78903 92.1149 3.71155 91.8626 3.71155C91.6104 3.71155 91.3646 3.78903 91.16 3.933C90.9555 4.07698 90.8026 4.28013 90.723 4.51367C90.3934 5.47571 89.8399 6.35019 89.1059 7.06857C88.3719 7.78695 87.4774 8.3297 86.4924 8.65429C86.2536 8.73226 86.0459 8.88151 85.8988 9.08094C85.7517 9.28037 85.6725 9.51988 85.6725 9.76562C85.6725 10.0114 85.7517 10.2509 85.8988 10.4503C86.0459 10.6497 86.2536 10.799 86.4924 10.8769ZM91.8627 7.48202C92.4934 8.37471 93.2847 9.14843 94.1983 9.76562C93.2847 10.3828 92.4934 11.1565 91.8627 12.0492C91.232 11.1566 90.4406 10.3829 89.527 9.76562C90.4406 9.14838 91.232 8.37467 91.8627 7.48202Z" fill="#284268"/>
<path d="M15.6736 72.4353C15.7295 72.1957 15.7068 71.9449 15.6086 71.7186C15.5104 71.4922 15.3418 71.3017 15.1266 71.174C14.2392 70.6438 13.4896 69.9204 12.9364 69.0605C12.3831 68.2007 12.0413 67.2276 11.9375 66.2174C11.9128 65.9724 11.8097 65.7413 11.6428 65.5567C11.4759 65.3722 11.2536 65.2436 11.0076 65.1892C10.7616 65.1349 10.5043 65.1574 10.2722 65.2538C10.0401 65.3501 9.84492 65.5153 9.71444 65.726C9.17546 66.5924 8.4379 67.3251 7.55971 67.8665C6.68151 68.4079 5.68662 68.7432 4.6532 68.8461C4.40236 68.8702 4.16565 68.9706 3.97659 69.1333C3.78752 69.2959 3.65569 69.5125 3.59977 69.7523C3.54384 69.9921 3.56665 70.243 3.66496 70.4694C3.76328 70.6959 3.93212 70.8864 4.14758 71.014C5.03495 71.5442 5.7846 72.2676 6.33787 73.1275C6.89114 73.9873 7.23305 74.9604 7.33685 75.9707C7.36156 76.2156 7.46468 76.4467 7.63158 76.6313C7.79849 76.8158 8.02071 76.9444 8.26672 76.9988C8.51273 77.0532 8.77004 77.0306 9.00216 76.9343C9.23428 76.8379 9.42942 76.6727 9.55991 76.4621C10.0989 75.5956 10.8365 74.8629 11.7147 74.3215C12.5928 73.7802 13.5877 73.4449 14.6211 73.342C14.8719 73.3177 15.1084 73.217 15.2973 73.0543C15.4862 72.8916 15.6178 72.6751 15.6736 72.4353V72.4353ZM9.12094 73.3203C8.70788 72.3125 8.11108 71.3861 7.35946 70.5859C8.38951 70.1826 9.33601 69.6002 10.153 68.8672C10.5661 69.8749 11.1629 70.8014 11.9145 71.6015C10.8844 72.0049 9.93794 72.5873 9.12094 73.3203V73.3203Z" fill="#284268"/>
<path d="M97.4491 86.9629C97.1305 86.9629 96.825 87.0864 96.5998 87.3061C96.3746 87.5259 96.248 87.824 96.248 88.1348V88.1676C96.248 88.4784 96.3746 88.7765 96.5998 88.9962C96.825 89.216 97.1305 89.3395 97.4491 89.3395C97.7676 89.3395 98.0731 89.216 98.2983 88.9962C98.5235 88.7765 98.6501 88.4784 98.6501 88.1676V88.1348C98.6501 87.824 98.5235 87.5259 98.2983 87.3061C98.0731 87.0864 97.7676 86.9629 97.4491 86.9629Z" fill="#284268"/>
<path d="M97.5363 84.6639C97.8549 84.6639 98.1603 84.5405 98.3856 84.3207C98.6108 84.1009 98.7373 83.8029 98.7373 83.4921C98.7381 81.2635 98.0908 79.0804 96.8707 77.1964C95.6505 75.3125 93.9076 73.805 91.8444 72.8491C91.7018 72.7832 91.5474 72.7453 91.3899 72.7377C91.2324 72.73 91.0748 72.7527 90.9263 72.8044C90.7778 72.8561 90.6411 72.9359 90.5242 73.0392C90.4072 73.1424 90.3123 73.2672 90.2447 73.4062C90.1772 73.5453 90.1384 73.696 90.1305 73.8497C90.1227 74.0034 90.1459 74.1571 90.1989 74.302C90.2519 74.447 90.3337 74.5803 90.4395 74.6944C90.5454 74.8085 90.6732 74.9012 90.8157 74.9671C92.4689 75.7319 93.8654 76.9393 94.8425 78.4485C95.8197 79.9578 96.3374 81.7069 96.3353 83.4921C96.3353 83.8029 96.4619 84.1009 96.6871 84.3207C96.9123 84.5405 97.2178 84.6639 97.5363 84.6639Z" fill="#284268"/>
<path d="M95.4551 22.2656C96.6695 22.2656 97.6539 21.3037 97.6539 20.1172C97.6539 18.9306 96.6695 17.9688 95.4551 17.9688C94.2407 17.9688 93.2562 18.9306 93.2562 20.1172C93.2562 21.3037 94.2407 22.2656 95.4551 22.2656Z" fill="#284268"/>
<path d="M97.6504 94.3359C98.5342 94.3359 99.2506 93.6364 99.2506 92.7734C99.2506 91.9105 98.5342 91.2109 97.6504 91.2109C96.7667 91.2109 96.0503 91.9105 96.0503 92.7734C96.0503 93.6364 96.7667 94.3359 97.6504 94.3359Z" fill="#284268"/>
<path d="M8.63915 16.7969C9.85353 16.7969 10.838 15.835 10.838 14.6484C10.838 13.4619 9.85353 12.5 8.63915 12.5C7.42476 12.5 6.44031 13.4619 6.44031 14.6484C6.44031 15.835 7.42476 16.7969 8.63915 16.7969Z" fill="#284268"/>
<path d="M8.63915 86.5234C9.85353 86.5234 10.838 85.5615 10.838 84.375C10.838 83.1885 9.85353 82.2266 8.63915 82.2266C7.42476 82.2266 6.44031 83.1885 6.44031 84.375C6.44031 85.5615 7.42476 86.5234 8.63915 86.5234Z" fill="#284268"/>
<path d="M85.8013 37.6717C85.9787 38.5837 86.1186 39.5163 86.2165 40.4434C86.2491 40.7526 86.4063 41.0364 86.6534 41.2325C86.9006 41.4286 87.2174 41.5209 87.5343 41.489C87.8511 41.4572 88.142 41.3038 88.343 41.0627C88.544 40.8215 88.6385 40.5124 88.6059 40.2032C88.501 39.21 88.3513 38.211 88.1611 37.2344C88.1007 36.93 87.919 36.6614 87.656 36.4874C87.393 36.3134 87.07 36.2482 86.7578 36.3061C86.4456 36.3639 86.1697 36.5402 85.9904 36.7962C85.8111 37.0522 85.7431 37.3671 85.8013 37.6719V37.6717Z" fill="#284268"/>
<path d="M80.0746 24.6517C81.0015 25.9122 81.8364 27.2348 82.5731 28.6097C83.0523 29.505 83.495 30.4345 83.8886 31.3724C83.9451 31.5192 84.0312 31.6534 84.1418 31.7671C84.2525 31.8808 84.3854 31.9717 84.5326 32.0344C84.6799 32.0971 84.8386 32.1303 84.9993 32.132C85.1599 32.1338 85.3193 32.1041 85.468 32.0447C85.6167 31.9853 85.7517 31.8973 85.8649 31.7861C85.9782 31.6749 86.0674 31.5426 86.1273 31.3971C86.1872 31.2516 86.2166 31.0959 86.2137 30.9391C86.2108 30.7824 86.1757 30.6278 86.1104 30.4845C85.6889 29.4796 85.2147 28.4835 84.7009 27.5245C82.955 24.2641 80.6985 21.2893 78.0129 18.7075C77.7857 18.4907 77.4798 18.3705 77.162 18.3733C76.8442 18.3762 76.5406 18.5018 76.3175 18.7226C76.0945 18.9435 75.9702 19.2416 75.9719 19.5516C75.9737 19.8617 76.1013 20.1584 76.3268 20.3769C77.698 21.6956 78.9517 23.1257 80.0746 24.6517V24.6517Z" fill="#284268"/>
</svg>
