<svg width="57" height="57" viewBox="0 0 57 57" fill="none" xmlns="http://www.w3.org/2000/svg">
<g filter="url(#filter0_i)">
<rect width="57" height="57" fill="#3F238E"/>
<path d="M27.248 38L23.816 33.08C23.672 33.096 23.456 33.104 23.168 33.104H19.376V38H16.256V21.2H23.168C24.624 21.2 25.888 21.44 26.96 21.92C28.048 22.4 28.88 23.088 29.456 23.984C30.032 24.88 30.32 25.944 30.32 27.176C30.32 28.44 30.008 29.528 29.384 30.44C28.776 31.352 27.896 32.032 26.744 32.48L30.608 38H27.248ZM27.176 27.176C27.176 26.104 26.824 25.28 26.12 24.704C25.416 24.128 24.384 23.84 23.024 23.84H19.376V30.536H23.024C24.384 30.536 25.416 30.248 26.12 29.672C26.824 29.08 27.176 28.248 27.176 27.176ZM40.7227 21.2C42.1787 21.2 43.4427 21.44 44.5147 21.92C45.6027 22.4 46.4347 23.088 47.0107 23.984C47.5867 24.88 47.8747 25.944 47.8747 27.176C47.8747 28.392 47.5867 29.456 47.0107 30.368C46.4347 31.264 45.6027 31.952 44.5147 32.432C43.4427 32.912 42.1787 33.152 40.7227 33.152H36.9307V38H33.8107V21.2H40.7227ZM40.5787 30.512C41.9387 30.512 42.9707 30.224 43.6747 29.648C44.3787 29.072 44.7307 28.248 44.7307 27.176C44.7307 26.104 44.3787 25.28 43.6747 24.704C42.9707 24.128 41.9387 23.84 40.5787 23.84H36.9307V30.512H40.5787Z" fill="#E4D39F"/>
</g>
<defs>
<filter id="filter0_i" x="0" y="0" width="57" height="61" filterUnits="userSpaceOnUse" color-interpolation-filters="sRGB">
<feFlood flood-opacity="0" result="BackgroundImageFix"/>
<feBlend mode="normal" in="SourceGraphic" in2="BackgroundImageFix" result="shape"/>
<feColorMatrix in="SourceAlpha" type="matrix" values="0 0 0 0 0 0 0 0 0 0 0 0 0 0 0 0 0 0 127 0" result="hardAlpha"/>
<feOffset dy="4"/>
<feGaussianBlur stdDeviation="2"/>
<feComposite in2="hardAlpha" operator="arithmetic" k2="-1" k3="1"/>
<feColorMatrix type="matrix" values="0 0 0 0 0 0 0 0 0 0 0 0 0 0 0 0 0 0 0.25 0"/>
<feBlend mode="normal" in2="shape" result="effect1_innerShadow"/>
</filter>
</defs>
</svg>
