<svg width="310" height="57" viewBox="0 0 310 57" fill="none" xmlns="http://www.w3.org/2000/svg">
<path d="M95.248 37L91.816 32.08C91.672 32.096 91.456 32.104 91.168 32.104H87.376V37H84.256V20.2H91.168C92.624 20.2 93.888 20.44 94.96 20.92C96.048 21.4 96.88 22.088 97.456 22.984C98.032 23.88 98.32 24.944 98.32 26.176C98.32 27.44 98.008 28.528 97.384 29.44C96.776 30.352 95.896 31.032 94.744 31.48L98.608 37H95.248ZM95.176 26.176C95.176 25.104 94.824 24.28 94.12 23.704C93.416 23.128 92.384 22.84 91.024 22.84H87.376V29.536H91.024C92.384 29.536 93.416 29.248 94.12 28.672C94.824 28.08 95.176 27.248 95.176 26.176ZM109.659 37.24C107.947 37.24 106.403 36.872 105.027 36.136C103.651 35.384 102.571 34.352 101.787 33.04C101.003 31.712 100.611 30.232 100.611 28.6C100.611 26.968 101.003 25.496 101.787 24.184C102.571 22.856 103.651 21.824 105.027 21.088C106.403 20.336 107.947 19.96 109.659 19.96C111.371 19.96 112.915 20.336 114.291 21.088C115.667 21.824 116.747 22.848 117.531 24.16C118.315 25.472 118.707 26.952 118.707 28.6C118.707 30.248 118.315 31.728 117.531 33.04C116.747 34.352 115.667 35.384 114.291 36.136C112.915 36.872 111.371 37.24 109.659 37.24ZM109.659 34.504C110.779 34.504 111.787 34.256 112.683 33.76C113.579 33.248 114.283 32.544 114.795 31.648C115.307 30.736 115.563 29.72 115.563 28.6C115.563 27.48 115.307 26.472 114.795 25.576C114.283 24.664 113.579 23.96 112.683 23.464C111.787 22.952 110.779 22.696 109.659 22.696C108.539 22.696 107.531 22.952 106.635 23.464C105.739 23.96 105.035 24.664 104.523 25.576C104.011 26.472 103.755 27.48 103.755 28.6C103.755 29.72 104.011 30.736 104.523 31.648C105.035 32.544 105.739 33.248 106.635 33.76C107.531 34.256 108.539 34.504 109.659 34.504ZM129.79 37.24C128.094 37.24 126.558 36.872 125.182 36.136C123.822 35.384 122.75 34.352 121.966 33.04C121.198 31.728 120.814 30.248 120.814 28.6C120.814 26.952 121.206 25.472 121.99 24.16C122.774 22.848 123.846 21.824 125.206 21.088C126.582 20.336 128.118 19.96 129.814 19.96C131.19 19.96 132.446 20.2 133.582 20.68C134.718 21.16 135.678 21.856 136.462 22.768L134.446 24.664C133.23 23.352 131.734 22.696 129.958 22.696C128.806 22.696 127.774 22.952 126.862 23.464C125.95 23.96 125.238 24.656 124.726 25.552C124.214 26.448 123.958 27.464 123.958 28.6C123.958 29.736 124.214 30.752 124.726 31.648C125.238 32.544 125.95 33.248 126.862 33.76C127.774 34.256 128.806 34.504 129.958 34.504C131.734 34.504 133.23 33.84 134.446 32.512L136.462 34.432C135.678 35.344 134.71 36.04 133.558 36.52C132.422 37 131.166 37.24 129.79 37.24ZM145.235 29.968L142.571 32.704V37H139.451V20.2H142.571V28.816L150.875 20.2H154.379L147.323 27.712L154.811 37H151.163L145.235 29.968ZM169.536 34.384V37H156.936V20.2H169.2V22.816H160.056V27.184H168.168V29.752H160.056V34.384H169.536ZM176.422 22.84H170.854V20.2H185.11V22.84H179.542V37H176.422V22.84ZM185.672 29.08H192.272V31.576H185.672V29.08ZM202.754 20.2C204.21 20.2 205.474 20.44 206.546 20.92C207.634 21.4 208.466 22.088 209.042 22.984C209.618 23.88 209.906 24.944 209.906 26.176C209.906 27.392 209.618 28.456 209.042 29.368C208.466 30.264 207.634 30.952 206.546 31.432C205.474 31.912 204.21 32.152 202.754 32.152H198.962V37H195.842V20.2H202.754ZM202.61 29.512C203.97 29.512 205.002 29.224 205.706 28.648C206.41 28.072 206.762 27.248 206.762 26.176C206.762 25.104 206.41 24.28 205.706 23.704C205.002 23.128 203.97 22.84 202.61 22.84H198.962V29.512H202.61ZM223.074 33.112H214.674L213.018 37H209.802L217.362 20.2H220.434L228.018 37H224.754L223.074 33.112ZM222.042 30.664L218.874 23.32L215.73 30.664H222.042ZM232.719 22.84H227.151V20.2H241.407V22.84H235.839V37H232.719V22.84ZM251.29 37.24C249.594 37.24 248.058 36.872 246.682 36.136C245.322 35.384 244.25 34.352 243.466 33.04C242.698 31.728 242.314 30.248 242.314 28.6C242.314 26.952 242.706 25.472 243.49 24.16C244.274 22.848 245.346 21.824 246.706 21.088C248.082 20.336 249.618 19.96 251.314 19.96C252.69 19.96 253.946 20.2 255.082 20.68C256.218 21.16 257.178 21.856 257.962 22.768L255.946 24.664C254.73 23.352 253.234 22.696 251.458 22.696C250.306 22.696 249.274 22.952 248.362 23.464C247.45 23.96 246.738 24.656 246.226 25.552C245.714 26.448 245.458 27.464 245.458 28.6C245.458 29.736 245.714 30.752 246.226 31.648C246.738 32.544 247.45 33.248 248.362 33.76C249.274 34.256 250.306 34.504 251.458 34.504C253.234 34.504 254.73 33.84 255.946 32.512L257.962 34.432C257.178 35.344 256.21 36.04 255.058 36.52C253.922 37 252.666 37.24 251.29 37.24ZM275.879 20.2V37H272.759V29.8H264.071V37H260.951V20.2H264.071V27.136H272.759V20.2H275.879ZM292.981 34.384V37H280.381V20.2H292.645V22.816H283.501V27.184H291.613V29.752H283.501V34.384H292.981ZM301.667 37.24C300.371 37.24 299.115 37.056 297.899 36.688C296.699 36.32 295.747 35.832 295.043 35.224L296.123 32.8C296.811 33.344 297.651 33.792 298.643 34.144C299.651 34.48 300.659 34.648 301.667 34.648C302.915 34.648 303.843 34.448 304.451 34.048C305.075 33.648 305.387 33.12 305.387 32.464C305.387 31.984 305.211 31.592 304.859 31.288C304.523 30.968 304.091 30.72 303.563 30.544C303.035 30.368 302.315 30.168 301.403 29.944C300.123 29.64 299.083 29.336 298.283 29.032C297.499 28.728 296.819 28.256 296.243 27.616C295.683 26.96 295.403 26.08 295.403 24.976C295.403 24.048 295.651 23.208 296.147 22.456C296.659 21.688 297.419 21.08 298.427 20.632C299.451 20.184 300.699 19.96 302.171 19.96C303.195 19.96 304.203 20.088 305.195 20.344C306.187 20.6 307.043 20.968 307.763 21.448L306.779 23.872C306.043 23.44 305.275 23.112 304.475 22.888C303.675 22.664 302.899 22.552 302.147 22.552C300.915 22.552 299.995 22.76 299.387 23.176C298.795 23.592 298.499 24.144 298.499 24.832C298.499 25.312 298.667 25.704 299.003 26.008C299.355 26.312 299.795 26.552 300.323 26.728C300.851 26.904 301.571 27.104 302.483 27.328C303.731 27.616 304.755 27.92 305.555 28.24C306.355 28.544 307.035 29.016 307.595 29.656C308.171 30.296 308.459 31.16 308.459 32.248C308.459 33.176 308.203 34.016 307.691 34.768C307.195 35.52 306.435 36.12 305.411 36.568C304.387 37.016 303.139 37.24 301.667 37.24Z" fill="#0E1821"/>
<rect width="57" height="57" fill="#3F238E"/>
<path d="M27.248 38L23.816 33.08C23.672 33.096 23.456 33.104 23.168 33.104H19.376V38H16.256V21.2H23.168C24.624 21.2 25.888 21.44 26.96 21.92C28.048 22.4 28.88 23.088 29.456 23.984C30.032 24.88 30.32 25.944 30.32 27.176C30.32 28.44 30.008 29.528 29.384 30.44C28.776 31.352 27.896 32.032 26.744 32.48L30.608 38H27.248ZM27.176 27.176C27.176 26.104 26.824 25.28 26.12 24.704C25.416 24.128 24.384 23.84 23.024 23.84H19.376V30.536H23.024C24.384 30.536 25.416 30.248 26.12 29.672C26.824 29.08 27.176 28.248 27.176 27.176ZM40.7227 21.2C42.1787 21.2 43.4427 21.44 44.5147 21.92C45.6027 22.4 46.4347 23.088 47.0107 23.984C47.5867 24.88 47.8747 25.944 47.8747 27.176C47.8747 28.392 47.5867 29.456 47.0107 30.368C46.4347 31.264 45.6027 31.952 44.5147 32.432C43.4427 32.912 42.1787 33.152 40.7227 33.152H36.9307V38H33.8107V21.2H40.7227ZM40.5787 30.512C41.9387 30.512 42.9707 30.224 43.6747 29.648C44.3787 29.072 44.7307 28.248 44.7307 27.176C44.7307 26.104 44.3787 25.28 43.6747 24.704C42.9707 24.128 41.9387 23.84 40.5787 23.84H36.9307V30.512H40.5787Z" fill="#F2F2F2"/>
</svg>
