<svg width="100" height="100" viewBox="0 0 100 100" fill="none" xmlns="http://www.w3.org/2000/svg">
<g clip-path="url(#clip0)">
<path d="M100 50C100 66.5079 86.6667 80 70 80C53.4921 80 40 66.5079 40 50C40 33.4921 53.3333 20 69.8413 20C86.6667 20 100 33.4921 100 50Z" fill="#FFB600"/>
<path d="M70 20C86.5079 20 100 33.4921 100 50C100 66.5079 86.6667 80 70 80C53.4921 80 40 66.5079 40 50" fill="#F7981D"/>
<path d="M70 20C86.5079 20 100 33.4921 100 50C100 66.5079 86.6667 80 70 80" fill="#FF8500"/>
<path d="M29.6825 20C13.3333 20.1587 0 33.4921 0 50C0 66.5079 13.3333 80 30 80C37.7778 80 44.7619 76.9841 50.1587 72.2222C51.2698 71.2698 52.2222 70.1587 53.1746 69.0476H46.9841C46.1905 68.0952 45.3968 66.9841 44.7619 66.0317H55.3968C56.0317 65.0794 56.6667 63.9683 57.1429 62.8571H43.0159C42.5397 61.9048 42.0635 60.7936 41.746 59.6825H58.254C59.2064 56.6667 59.8413 53.4921 59.8413 50.1587C59.8413 47.9365 59.5238 45.873 59.2063 43.8095H40.7937C40.9524 42.6984 41.2698 41.746 41.5873 40.6349H58.0952C57.7778 39.5238 57.3016 38.4127 56.8254 37.4603H42.8571C43.3333 36.3492 43.9683 35.3968 44.6032 34.2857H55.2381C54.6032 33.1746 53.8095 32.0635 52.8571 31.1111H46.9841C47.9365 30 48.8889 29.0476 50 28.0952C44.7619 23.1746 37.619 20.3175 29.8413 20.3175C29.8413 20 29.8413 20 29.6825 20Z" fill="#FF5050"/>
<path d="M0 49.9999C0 66.5079 13.3333 79.9999 30 79.9999C37.7778 79.9999 44.7619 76.984 50.1587 72.2221C51.2698 71.2698 52.2222 70.1586 53.1746 69.0475H46.9841C46.1905 68.0952 45.3968 66.984 44.7619 66.0317H55.3968C56.0317 65.0793 56.6667 63.9682 57.1429 62.8571H43.0159C42.5397 61.9047 42.0635 60.7936 41.746 59.6825H58.254C59.2064 56.6666 59.8413 53.492 59.8413 50.1586C59.8413 47.9364 59.5238 45.8729 59.2063 43.8094H40.7937C40.9524 42.6983 41.2698 41.746 41.5873 40.6348H58.0952C57.7778 39.5237 57.3016 38.4126 56.8254 37.4602H42.8571C43.3333 36.3491 43.9683 35.3967 44.6032 34.2856H55.2381C54.6032 33.1745 53.8095 32.0634 52.8571 31.111H46.9841C47.9365 29.9999 48.8889 29.0475 50 28.0952C44.7619 23.1745 37.619 20.3174 29.8413 20.3174H29.6825" fill="#E52836"/>
<path d="M30 79.9999C37.7778 79.9999 44.7619 76.984 50.1587 72.2221C51.2699 71.2698 52.2222 70.1586 53.1746 69.0475H46.9841C46.1905 68.0952 45.3968 66.984 44.7619 66.0317H55.3968C56.0318 65.0793 56.6667 63.9682 57.1429 62.8571H43.0159C42.5397 61.9047 42.0635 60.7936 41.746 59.6825H58.254C59.2064 56.6666 59.8413 53.492 59.8413 50.1586C59.8413 47.9364 59.5238 45.8729 59.2064 43.8094H40.7937C40.9524 42.6983 41.2699 41.746 41.5873 40.6348H58.0952C57.7778 39.5237 57.3016 38.4126 56.8254 37.4602H42.8572C43.3333 36.3491 43.9683 35.3967 44.6032 34.2856H55.2381C54.6032 33.1745 53.8095 32.0634 52.8572 31.111H46.9841C47.9365 29.9999 48.8889 29.0475 50 28.0952C44.7619 23.1745 37.6191 20.3174 29.8413 20.3174H29.6826" fill="#CB2026"/>
<path d="M40.6349 57.6191L41.1111 54.9207C40.9524 54.9207 40.6349 55.0794 40.3175 55.0794C39.2063 55.0794 39.0476 54.4445 39.2063 54.1271L40.1587 48.5715H41.9048L42.3809 45.5556H40.7936L41.1111 43.6509H37.9365C37.9365 43.6509 36.0317 54.1271 36.0317 55.3969C36.0317 57.3017 37.1428 58.0953 38.5714 58.0953C39.5238 58.0953 40.3175 57.7779 40.6349 57.6191Z" fill="white"/>
<path d="M41.746 52.5399C41.746 56.9843 44.7618 58.0954 47.3015 58.0954C49.6825 58.0954 50.6349 57.6193 50.6349 57.6193L51.2698 54.6034C51.2698 54.6034 49.5238 55.397 47.9364 55.397C44.4444 55.397 45.0793 52.8574 45.0793 52.8574H51.5872C51.5872 52.8574 52.0634 50.7939 52.0634 50.0002C52.0634 47.9367 50.9523 45.397 47.4603 45.397C44.1269 45.0796 41.746 48.5716 41.746 52.5399ZM47.3015 47.9367C49.0476 47.9367 48.7301 50.0002 48.7301 50.1589H45.238C45.238 50.0002 45.5555 47.9367 47.3015 47.9367Z" fill="white"/>
<path d="M67.4603 57.619L68.0952 54.1269C68.0952 54.1269 66.5079 54.9206 65.3968 54.9206C63.1746 54.9206 62.2222 53.1745 62.2222 51.2698C62.2222 47.4603 64.127 45.3968 66.3492 45.3968C67.9365 45.3968 69.2064 46.3491 69.2064 46.3491L69.6825 43.0158C69.6825 43.0158 67.7778 42.2222 66.0317 42.2222C62.381 42.2222 58.7302 45.3968 58.7302 51.4285C58.7302 55.3968 60.6349 58.0952 64.4444 58.0952C65.7143 58.0952 67.4603 57.619 67.4603 57.619Z" fill="white"/>
<path d="M23.1746 45.0796C20.9523 45.0796 19.365 45.7145 19.365 45.7145L18.8889 48.4129C18.8889 48.4129 20.3174 47.778 22.3809 47.778C23.492 47.778 24.4444 47.9367 24.4444 48.8891C24.4444 49.524 24.2857 49.6828 24.2857 49.6828C24.2857 49.6828 23.3333 49.6828 22.8571 49.6828C20.1587 49.6828 17.1428 50.7939 17.1428 54.4447C17.1428 57.3018 19.0476 57.9367 20.1587 57.9367C22.3809 57.9367 23.3333 56.5081 23.492 56.5081L23.3333 57.778H26.1904L27.4603 49.0478C27.4603 45.2383 24.2857 45.0796 23.1746 45.0796ZM23.8095 52.2224C23.8095 52.6986 23.492 55.2383 21.5873 55.2383C20.6349 55.2383 20.3174 54.4447 20.3174 53.9685C20.3174 53.1748 20.7936 52.0637 23.1746 52.0637C23.6508 52.2224 23.8095 52.2224 23.8095 52.2224Z" fill="white"/>
<path d="M30.4762 57.9363C31.2698 57.9363 35.2381 58.095 35.2381 53.8093C35.2381 49.841 31.4286 50.6347 31.4286 49.0474C31.4286 48.2537 32.0635 47.9363 33.1746 47.9363C33.6508 47.9363 35.3968 48.095 35.3968 48.095L35.873 45.2379C35.873 45.2379 34.7619 44.9204 32.8571 44.9204C30.4762 44.9204 28.0952 45.8728 28.0952 49.0474C28.0952 52.6982 32.0635 52.3807 32.0635 53.8093C32.0635 54.7617 30.9524 54.9204 30.1587 54.9204C28.7301 54.9204 27.3016 54.4442 27.3016 54.4442L26.8254 57.3014C26.9841 57.6188 27.7778 57.9363 30.4762 57.9363Z" fill="white"/>
<path d="M93.8095 42.5396L93.1745 46.8253C93.1745 46.8253 91.9047 45.238 90.1587 45.238C87.3015 45.238 84.7618 48.73 84.7618 52.857C84.7618 55.3967 86.0317 58.0951 88.7301 58.0951C90.6349 58.0951 91.746 56.8253 91.746 56.8253L91.5872 57.9364H94.7618L97.1428 42.6983L93.8095 42.5396ZM92.3809 50.9522C92.3809 52.6983 91.5872 54.9205 89.8412 54.9205C88.7301 54.9205 88.0952 53.9681 88.0952 52.3808C88.0952 49.8411 89.2063 48.2538 90.6349 48.2538C91.746 48.2538 92.3809 49.0475 92.3809 50.9522Z" fill="white"/>
<path d="M5.87299 57.7776L7.77775 46.3491L8.09521 57.7776H10.3174L14.4444 46.3491L12.6984 57.7776H16.0317L18.5714 42.5396H13.3333L10.1587 51.9046L9.99997 42.5396H5.3968L2.85712 57.7776H5.87299Z" fill="white"/>
<path d="M55.0793 57.7779C56.0317 52.5398 56.1904 48.2541 58.4127 49.0478C58.7301 46.9843 59.2063 46.1906 59.5238 45.397C59.5238 45.397 59.365 45.397 58.8889 45.397C57.4603 45.397 56.3492 47.3017 56.3492 47.3017L56.6666 45.5557H53.6508L51.5873 57.9366H55.0793V57.7779Z" fill="white"/>
<path d="M74.7618 45.0796C72.5396 45.0796 70.9523 45.7145 70.9523 45.7145L70.4761 48.4129C70.4761 48.4129 71.9047 47.778 73.9682 47.778C75.0793 47.778 76.0317 47.9367 76.0317 48.8891C76.0317 49.524 75.873 49.6828 75.873 49.6828C75.873 49.6828 74.9206 49.6828 74.4444 49.6828C71.746 49.6828 68.7301 50.7939 68.7301 54.4447C68.7301 57.3018 70.6349 57.9367 71.746 57.9367C73.9682 57.9367 74.9206 56.5081 75.0793 56.5081L74.9206 57.778H77.7777L79.0476 49.0478C79.2063 45.2383 75.873 45.0796 74.7618 45.0796ZM75.5555 52.2224C75.5555 52.6986 75.238 55.2383 73.3333 55.2383C72.3809 55.2383 72.0634 54.4447 72.0634 53.9685C72.0634 53.1748 72.5396 52.0637 74.9206 52.0637C75.3968 52.2224 75.3968 52.2224 75.5555 52.2224Z" fill="white"/>
<path d="M81.746 57.7779C82.6984 52.5398 82.8571 48.2541 85.0794 49.0478C85.3968 46.9843 85.873 46.1906 86.1905 45.397C86.1905 45.397 86.0317 45.397 85.5556 45.397C84.127 45.397 83.0159 47.3017 83.0159 47.3017L83.3333 45.5557H80.3175L78.254 57.9366H81.746V57.7779Z" fill="white"/>
<path d="M35.7143 55.3969C35.7143 57.3017 36.8254 58.0953 38.254 58.0953C39.3651 58.0953 40.3175 57.7779 40.6349 57.6191L41.1111 54.9207C40.9524 54.9207 40.6349 55.0794 40.3175 55.0794C39.2064 55.0794 39.0476 54.4445 39.2064 54.1271L40.1587 48.5715H41.9048L42.381 45.5556H40.7937L41.1111 43.6509" fill="#DCE5E5"/>
<path d="M43.3333 52.5399C43.3333 56.9843 44.7619 58.0954 47.3016 58.0954C49.6825 58.0954 50.6349 57.6193 50.6349 57.6193L51.2698 54.6034C51.2698 54.6034 49.5238 55.397 47.9365 55.397C44.4444 55.397 45.0793 52.8574 45.0793 52.8574H51.5873C51.5873 52.8574 52.0635 50.7939 52.0635 50.0002C52.0635 47.9367 50.9524 45.397 47.4603 45.397C44.127 45.0796 43.3333 48.5716 43.3333 52.5399ZM47.3016 47.9367C49.0476 47.9367 49.3651 50.0002 49.3651 50.1589H45.2381C45.2381 50.0002 45.5555 47.9367 47.3016 47.9367Z" fill="#DCE5E5"/>
<path d="M67.4603 57.619L68.0952 54.1269C68.0952 54.1269 66.5079 54.9206 65.3968 54.9206C63.1746 54.9206 62.2222 53.1745 62.2222 51.2698C62.2222 47.4603 64.127 45.3968 66.3492 45.3968C67.9365 45.3968 69.2063 46.3491 69.2063 46.3491L69.6825 43.0158C69.6825 43.0158 67.7778 42.2222 66.0317 42.2222C62.3809 42.2222 60.3174 45.3968 60.3174 51.4285C60.3174 55.3968 60.6349 58.0952 64.4444 58.0952C65.7143 58.0952 67.4603 57.619 67.4603 57.619Z" fill="#DCE5E5"/>
<path d="M18.8889 48.5716C18.8889 48.5716 20.3174 47.9367 22.3809 47.9367C23.492 47.9367 24.4444 48.0954 24.4444 49.0478C24.4444 49.6827 24.2857 49.8414 24.2857 49.8414C24.2857 49.8414 23.3333 49.8414 22.8571 49.8414C20.1587 49.8414 17.1428 50.9525 17.1428 54.6033C17.1428 57.4605 19.0476 58.0954 20.1587 58.0954C22.3809 58.0954 23.3333 56.6668 23.492 56.6668L23.3333 57.9366H26.1904L27.4603 49.2065C27.4603 45.5557 24.2857 45.397 23.0158 45.397L18.8889 48.5716ZM25.3968 52.2224C25.3968 52.6986 23.492 55.2382 21.5873 55.2382C20.6349 55.2382 20.3174 54.4446 20.3174 53.9684C20.3174 53.1747 20.7936 52.0636 23.1746 52.0636C23.6508 52.2224 25.3968 52.2224 25.3968 52.2224Z" fill="#DCE5E5"/>
<path d="M26.9841 57.6188C26.9841 57.6188 27.9365 57.9363 30.6349 57.9363C31.4286 57.9363 35.3968 58.095 35.3968 53.8093C35.3968 49.841 31.5873 50.6347 31.5873 49.0474C31.5873 48.2537 32.2222 47.9363 33.3333 47.9363C33.8095 47.9363 35.5556 48.095 35.5556 48.095L36.0317 45.2379C36.0317 45.2379 34.9206 44.9204 33.0159 44.9204C30.6349 44.9204 29.8413 45.8728 29.8413 49.0474C29.8413 52.6982 32.2222 52.3807 32.2222 53.8093C32.2222 54.7617 31.1111 54.9204 30.3175 54.9204" fill="#DCE5E5"/>
<path d="M93.1746 46.8252C93.1746 46.8252 91.9048 45.2379 90.1587 45.2379C87.3016 45.2379 86.3492 48.73 86.3492 52.857C86.3492 55.3966 86.0318 58.0951 88.7302 58.0951C90.6349 58.0951 91.746 56.8252 91.746 56.8252L91.5873 57.9363H94.7619L97.1429 42.6982L93.1746 46.8252ZM93.0159 50.9522C93.0159 52.6982 91.5873 54.9205 89.8413 54.9205C88.7302 54.9205 88.0953 53.9681 88.0953 52.3808C88.0953 49.8411 89.2064 48.2538 90.6349 48.2538C91.746 48.2538 93.0159 49.0474 93.0159 50.9522Z" fill="#DCE5E5"/>
<path d="M5.87299 57.7776L7.77775 46.3491L8.09521 57.7776H10.3174L14.4444 46.3491L12.6984 57.7776H16.0317L18.5714 42.5396H14.6031L10.1587 51.9046L9.99997 42.5396H8.25394L2.85712 57.7776H5.87299Z" fill="#DCE5E5"/>
<path d="M51.746 57.7779H55.0793C56.0317 52.5398 56.1904 48.2541 58.4126 49.0478C58.7301 46.9843 59.2063 46.1906 59.5238 45.397C59.5238 45.397 59.365 45.397 58.8888 45.397C57.4603 45.397 56.3491 47.3017 56.3491 47.3017L56.6666 45.5557" fill="#DCE5E5"/>
<path d="M70.4761 48.5716C70.4761 48.5716 71.9047 47.9367 73.9682 47.9367C75.0793 47.9367 76.0317 48.0954 76.0317 49.0478C76.0317 49.6827 75.873 49.8414 75.873 49.8414C75.873 49.8414 74.9206 49.8414 74.4444 49.8414C71.746 49.8414 68.7301 50.9525 68.7301 54.6033C68.7301 57.4605 70.6349 58.0954 71.746 58.0954C73.9682 58.0954 74.9206 56.6668 75.0793 56.6668L74.9206 57.9366H77.7777L79.0476 49.2065C79.0476 45.5557 75.873 45.397 74.6031 45.397L70.4761 48.5716ZM76.9841 52.2224C76.9841 52.6986 75.0793 55.2382 73.1745 55.2382C72.2222 55.2382 71.9047 54.4446 71.9047 53.9684C71.9047 53.1747 72.3809 52.0636 74.7618 52.0636C75.3968 52.2224 76.9841 52.2224 76.9841 52.2224Z" fill="#DCE5E5"/>
<path d="M78.4127 57.7779H81.746C82.6984 52.5398 82.8571 48.2541 85.0793 49.0478C85.3968 46.9843 85.873 46.1906 86.1904 45.397C86.1904 45.397 86.0317 45.397 85.5555 45.397C84.1269 45.397 83.0158 47.3017 83.0158 47.3017L83.3333 45.5557" fill="#DCE5E5"/>
</g>
<defs>
<clipPath id="clip0">
<rect width="100" height="100" fill="white"/>
</clipPath>
</defs>
</svg>
