<svg width="24" height="23" viewBox="0 0 24 23" fill="none" xmlns="http://www.w3.org/2000/svg">
<path d="M1.69995 0.699997L2.59995 3.7M2.59995 3.7L6.19995 15.7H22.6999V6.7C22.6999 5.04314 21.3568 3.7 19.6999 3.7H2.59995ZM19.6999 21.7C18.8715 21.7 18.1999 21.0284 18.1999 20.2C18.1999 19.3716 18.8715 18.7 19.6999 18.7C20.5284 18.7 21.1999 19.3716 21.1999 20.2C21.1999 21.0284 20.5284 21.7 19.6999 21.7ZM7.69995 20.2C7.69995 19.3716 8.37152 18.7 9.19995 18.7C10.0284 18.7 10.7 19.3716 10.7 20.2C10.7 21.0284 10.0284 21.7 9.19995 21.7C8.37152 21.7 7.69995 21.0284 7.69995 20.2Z" stroke="#2F4F6B" stroke-width="2"/>
</svg>
