<svg width="103" height="100" viewBox="0 0 103 100" fill="none" xmlns="http://www.w3.org/2000/svg">
<g clip-path="url(#clip0)">
<path d="M77.9866 18.1284C75.7306 16.0325 72.4592 15.3509 69.5225 16.3649C68.6921 16.6357 68.0872 17.3381 67.9573 18.1829L67.3051 22.5555C66.3161 29.16 60.5247 34.0648 53.6842 34.0915H44.3676C43.2985 34.0917 42.367 34.802 42.1083 35.8141L35.1209 63.0858C34.8095 64.3036 35.5689 65.537 36.8171 65.8408C37.0011 65.8856 37.1902 65.9084 37.38 65.9084H49.0256C50.0947 65.9082 51.0262 65.1978 51.2849 64.1858L55.5007 47.7273H64.5844C71.5573 47.7499 77.6403 43.1124 79.3044 36.505L81.0233 29.7825C82.2334 25.6475 81.0735 21.1973 77.9866 18.1284Z" fill="#03A9F4"/>
<path d="M2.44362 93.1801C1.15728 93.1799 0.11463 92.1621 0.115067 90.907C0.115067 90.7218 0.138431 90.5373 0.184286 90.3577L2.51349 81.3127V81.2172L4.8427 72.1766C5.10145 71.1646 6.03296 70.4543 7.10203 70.454H13.0274C16.2433 70.4534 18.8507 72.9965 18.8516 76.1344C18.8516 76.5991 18.7933 77.0621 18.678 77.5129L18.0956 79.7857C17.4478 82.3157 15.1179 84.0905 12.4452 84.0901H6.59414L4.70754 91.4579C4.44835 92.4713 3.51422 93.182 2.44362 93.1801ZM7.75863 79.5443H12.4448C12.9791 79.5428 13.4438 79.1867 13.5722 78.6807L14.1545 76.408C14.3141 75.8027 13.9403 75.1857 13.32 75.0301C13.2243 75.0061 13.1261 74.9941 13.0271 74.9946H8.92313L7.75863 79.5443Z" fill="#283593"/>
<path d="M27.3513 93.18H24.0347C20.4689 93.1809 17.5777 90.361 17.5768 86.8817C17.5766 86.3663 17.6414 85.8529 17.7694 85.353L18.0768 84.1439C18.7662 81.4304 21.2675 79.5286 24.1325 79.5395H27.4491C31.0149 79.5454 33.9005 82.3708 33.8944 85.8501C33.8935 86.3629 33.8284 86.8736 33.7007 87.3709L33.3932 88.58C32.7032 91.287 30.2098 93.1851 27.3513 93.18ZM22.2924 86.4575C22.0531 87.398 22.6405 88.3495 23.6043 88.583C23.7452 88.6171 23.8895 88.6344 24.0347 88.6348H27.3513C28.0695 88.6367 28.6962 88.1603 28.87 87.4802L29.1774 86.2711C29.4167 85.3307 28.8294 84.3791 27.8655 84.1456C27.7247 84.1115 27.5804 84.0943 27.4352 84.0938H24.1185C23.4004 84.0919 22.7737 84.5683 22.5999 85.2484L22.2924 86.4575Z" fill="#283593"/>
<path d="M30.3932 93.1801C29.1069 93.1796 28.0645 92.1619 28.0647 90.9067C28.0647 90.7216 28.0881 90.5371 28.1339 90.3574L30.4631 81.2668C30.7745 80.0481 32.0392 79.3062 33.2884 79.6101C34.5374 79.9139 35.2977 81.1479 34.9864 82.3668L32.6572 91.4575C32.398 92.4712 31.4638 93.182 30.3932 93.1801Z" fill="#283593"/>
<path d="M58.3429 93.1801C57.0565 93.1797 56.0141 92.1619 56.0143 90.9068C56.0143 90.7216 56.0377 90.5371 56.0835 90.3575L58.4127 81.3125V81.217L60.7419 72.1764C61.0007 71.1644 61.9322 70.4541 63.0013 70.4539H68.9266C72.1425 70.4532 74.7499 72.9963 74.7508 76.1343C74.7508 76.5989 74.6925 77.0619 74.5772 77.5128L73.9949 79.7855C73.347 82.3155 71.0171 84.0903 68.3444 84.0899H62.4936L60.607 91.4577C60.3476 92.4713 59.4135 93.182 58.3429 93.1801ZM63.6579 79.5443H68.3488C68.8831 79.5428 69.3478 79.1868 69.4762 78.6807L70.0585 76.408C70.2179 75.8027 69.8443 75.1857 69.224 75.0302C69.1284 75.0061 69.0299 74.9942 68.9312 74.9946H64.8226L63.6579 79.5443Z" fill="#03A9F4"/>
<path d="M83.2505 93.1802H79.9339C76.3682 93.181 73.4769 90.3612 73.476 86.8819C73.4758 86.3665 73.5407 85.8531 73.6686 85.3532L73.9761 84.1441C74.6654 81.4306 77.1667 79.5288 80.0318 79.5397H83.3484C86.9141 79.5388 89.8054 82.3587 89.8062 85.8379C89.8065 86.3533 89.7416 86.8668 89.6137 87.3666L89.3062 88.5757C88.6169 91.2893 86.1156 93.1911 83.2505 93.1802ZM78.1917 86.4577C77.9523 87.3982 78.5397 88.3497 79.5035 88.5832C79.6444 88.6173 79.7887 88.6346 79.9339 88.635H83.2505C83.9687 88.6369 84.5954 88.1605 84.7692 87.4804L85.0767 86.2713C85.316 85.3308 84.7286 84.3793 83.7648 84.1458C83.6239 84.1117 83.4796 84.0945 83.3344 84.094H80.0178C79.2996 84.0921 78.6729 84.5685 78.4991 85.2486L78.1917 86.4577Z" fill="#03A9F4"/>
<path d="M86.2925 93.1801C85.0061 93.1796 83.9637 92.1619 83.9639 90.9067C83.9639 90.7216 83.9873 90.5371 84.0331 90.3574L86.3623 81.2668C86.6737 80.0481 87.9384 79.3062 89.1877 79.6101C90.4366 79.9139 91.197 81.1479 90.8856 82.3668L88.5564 91.4575C88.2972 92.4712 87.3631 93.182 86.2925 93.1801Z" fill="#03A9F4"/>
<path d="M44.368 90.9076C43.589 90.9072 42.8618 90.5269 42.4301 89.8941L37.7719 83.0762C37.0579 82.032 37.3468 80.6207 38.4172 79.924C39.4876 79.2272 40.9337 79.5091 41.6478 80.5535L46.306 87.3715C47.0211 88.4148 46.7342 89.8261 45.6651 90.5241C45.2812 90.7745 44.8297 90.9079 44.368 90.9076Z" fill="#283593"/>
<path d="M39.7097 97.7257C38.4233 97.7253 37.3809 96.7073 37.3813 95.4521C37.3815 94.921 37.5724 94.4067 37.9209 93.9984L49.5665 80.3626C50.391 79.3987 51.8603 79.2694 52.8482 80.0739C53.836 80.8784 53.9685 82.3121 53.144 83.276L41.4984 96.9118C41.0554 97.4285 40.4001 97.7266 39.7097 97.7257Z" fill="#283593"/>
<path d="M95.6089 93.1802C94.3225 93.1797 93.2801 92.162 93.2803 90.9068C93.2803 90.7217 93.3037 90.5372 93.3495 90.3575L98.0077 72.1765C98.3191 70.9578 99.5838 70.2159 100.833 70.5197C102.082 70.8235 102.842 72.0576 102.531 73.2765L97.8728 91.4576C97.6138 92.4713 96.6797 93.1821 95.6089 93.1802Z" fill="#03A9F4"/>
<path d="M70.2959 6.20626C68.058 3.70515 64.8202 2.27147 61.4173 2.27466H35.0514C33.9249 2.27466 32.96 3.06128 32.7596 4.14278L23.443 54.1408C23.2139 55.3759 24.0546 56.5581 25.3204 56.7816C25.4571 56.8057 25.5959 56.8179 25.7348 56.8179H39.7096C40.7787 56.8176 41.7102 56.1073 41.969 55.0953L46.1894 38.6368H53.6844C62.8462 38.6016 70.6022 32.0294 71.9216 23.1829L73.0861 15.4149C73.5662 12.0961 72.5485 8.73699 70.2959 6.20626Z" fill="#283593"/>
</g>
<defs>
<clipPath id="clip0">
<rect width="102.486" height="100" fill="white" transform="translate(0.115067)"/>
</clipPath>
</defs>
</svg>
