<svg width="100" height="100" viewBox="0 0 100 100" fill="none" xmlns="http://www.w3.org/2000/svg">
<path d="M77.3016 43.8887H71.9048C71.5873 43.8887 71.2699 44.2061 71.1111 44.5236L68.8889 58.4918C68.8889 58.8093 69.0476 58.968 69.3651 58.968H72.2222C72.5397 58.968 72.6984 58.8093 72.6984 58.4918L73.3334 54.5236C73.3334 54.2061 73.6508 53.8887 74.127 53.8887H75.873C79.5238 53.8887 81.5873 52.1426 82.0635 48.6506C82.381 47.222 82.0635 45.9522 81.4286 45.1585C80.4762 44.3649 79.0476 43.8887 77.3016 43.8887ZM77.9365 49.1268C77.6191 51.0315 76.1905 51.0315 74.7619 51.0315H73.8096L74.4445 47.3807C74.4445 47.222 74.6032 47.0633 74.9207 47.0633H75.2381C76.1905 47.0633 77.1429 47.0633 77.6191 47.6982C77.9365 47.8569 77.9365 48.3331 77.9365 49.1268Z" fill="#139AD6"/>
<path d="M38.4127 43.8887H33.0159C32.6984 43.8887 32.381 44.2061 32.2222 44.5236L30 58.4918C30 58.8093 30.1587 58.968 30.4762 58.968H33.0159C33.3333 58.968 33.6508 58.6506 33.8095 58.3331L34.4444 54.5236C34.4444 54.2061 34.7619 53.8887 35.2381 53.8887H36.9841C40.6349 53.8887 42.6984 52.1426 43.1746 48.6506C43.4921 47.222 43.1746 45.9522 42.5397 45.1585C41.5873 44.3649 40.3175 43.8887 38.4127 43.8887ZM39.0476 49.1268C38.7302 51.0315 37.3016 51.0315 35.873 51.0315H35.0794L35.7143 47.3807C35.7143 47.222 35.873 47.0633 36.1905 47.0633H36.5079C37.4603 47.0633 38.4127 47.0633 38.8889 47.6982C39.0476 47.8569 39.2064 48.3331 39.0476 49.1268Z" fill="#263B80"/>
<path d="M54.7619 48.9679H52.2222C52.0635 48.9679 51.746 49.1266 51.746 49.2853L51.5873 50.079L51.4286 49.7615C50.7936 48.9679 49.6825 48.6504 48.4127 48.6504C45.5556 48.6504 43.0159 50.8726 42.5397 53.8885C42.2222 55.4758 42.6984 56.9044 43.4921 57.8567C44.2857 58.8091 45.3968 59.1266 46.8254 59.1266C49.2063 59.1266 50.4762 57.698 50.4762 57.698L50.3175 58.4917C50.3175 58.8091 50.4762 58.9679 50.7936 58.9679H53.1746C53.4921 58.9679 53.8095 58.6504 53.9682 58.3329L55.3968 49.444C55.2381 49.2853 54.9206 48.9679 54.7619 48.9679ZM51.1111 54.0472C50.7936 55.4758 49.6825 56.5869 48.0952 56.5869C47.3016 56.5869 46.6667 56.2694 46.3492 55.952C46.0317 55.4758 45.873 54.8409 45.873 54.0472C46.0317 52.6186 47.3016 51.5075 48.7302 51.5075C49.5238 51.5075 50 51.825 50.4762 52.1425C50.9524 52.6186 51.1111 53.4123 51.1111 54.0472Z" fill="#263B80"/>
<path d="M93.4921 48.9683H90.9524C90.7936 48.9683 90.4762 49.1271 90.4762 49.2858L90.3175 50.0795L90.1587 49.762C89.5238 48.9683 88.4127 48.6509 87.1429 48.6509C84.2857 48.6509 81.746 50.8731 81.2698 53.889C80.9524 55.4763 81.4286 56.9049 82.2222 57.8572C83.0159 58.8096 84.127 59.1271 85.5556 59.1271C87.9365 59.1271 89.2063 57.6985 89.2063 57.6985L89.0476 58.4922C89.0476 58.8096 89.2063 58.9683 89.5238 58.9683H91.9048C92.2222 58.9683 92.5397 58.6509 92.6984 58.3334L94.127 49.4445C93.9682 49.2858 93.8095 48.9683 93.4921 48.9683ZM89.8413 54.0477C89.5238 55.4763 88.4127 56.5874 86.8254 56.5874C86.0317 56.5874 85.3968 56.2699 85.0794 55.9525C84.7619 55.4763 84.6032 54.8414 84.6032 54.0477C84.7619 52.6191 86.0317 51.508 87.4603 51.508C88.254 51.508 88.7302 51.8255 89.2063 52.1429C89.8413 52.6191 90 53.4128 89.8413 54.0477Z" fill="#139AD6"/>
<path d="M68.5714 48.9683H65.873C65.5555 48.9683 65.3968 49.127 65.2381 49.2857L61.746 54.6825L60.1587 49.6032C60 49.2857 59.8412 49.127 59.3651 49.127H56.8254C56.5079 49.127 56.3492 49.4445 56.3492 49.7619L59.2063 58.1746L56.5079 61.9841C56.3492 62.3016 56.5079 62.7778 56.8254 62.7778H59.3651C59.6825 62.7778 59.8412 62.619 60 62.4603L68.7301 49.9206C69.2063 49.4445 68.8889 48.9683 68.5714 48.9683Z" fill="#263B80"/>
<path d="M96.5079 44.3651L94.2857 58.6508C94.2857 58.9683 94.4444 59.127 94.7619 59.127H96.9841C97.3016 59.127 97.619 58.8095 97.7778 58.4921L100 44.5238C100 44.2064 99.8413 44.0476 99.5238 44.0476H96.9841C96.8254 43.8889 96.6667 44.0476 96.5079 44.3651Z" fill="#139AD6"/>
<path d="M18.254 39.1269C17.1429 37.8571 15.0794 37.2222 12.2222 37.2222H4.28571C3.80952 37.2222 3.33333 37.6984 3.1746 38.1745L0 58.9682C0 59.4444 0.31746 59.7618 0.634921 59.7618H5.55556L6.8254 51.9841V52.3015C6.98413 51.8253 7.46032 51.3491 7.93651 51.3491H10.3175C14.9206 51.3491 18.4127 49.4444 19.5238 44.2063C19.5238 44.0476 19.5238 43.8888 19.5238 43.7301C19.3651 43.7301 19.3651 43.7301 19.5238 43.7301C19.6825 41.6666 19.3651 40.3968 18.254 39.1269Z" fill="#263B80"/>
<path d="M19.3651 43.73C19.3651 43.8887 19.3651 44.0474 19.3651 44.2062C18.254 49.603 14.7619 51.349 10.1587 51.349H7.77779C7.3016 51.349 6.82541 51.8252 6.66668 52.3014L5.07938 61.984C5.07938 62.3014 5.23811 62.6189 5.7143 62.6189H9.84128C10.3175 62.6189 10.7937 62.3014 10.7937 61.8252V61.6665L11.5873 56.7459V56.4284C11.5873 55.9522 12.0635 55.6347 12.5397 55.6347H13.1746C17.1429 55.6347 20.3175 54.0474 21.1111 49.2855C21.4286 47.3808 21.2699 45.6347 20.3175 44.5236C20.1587 44.2062 19.8413 43.8887 19.3651 43.73Z" fill="#139AD6"/>
<path d="M18.2539 43.254C18.0952 43.254 17.9365 43.0953 17.7778 43.0953C17.619 43.0953 17.4603 43.0953 17.3016 42.9366C16.6666 42.7778 16.0317 42.7778 15.2381 42.7778H9.0476C8.88887 42.7778 8.73014 42.7778 8.57141 42.9366C8.25395 43.0953 8.09522 43.4128 8.09522 43.7302L6.82538 51.9842V52.3016C6.98411 51.8255 7.4603 51.3493 7.93649 51.3493H10.3174C14.9206 51.3493 18.4127 49.4445 19.5238 44.2064C19.5238 44.0477 19.5238 43.8889 19.6825 43.7302C19.3651 43.5715 19.2063 43.4128 18.8889 43.4128C18.4127 43.254 18.4127 43.254 18.2539 43.254Z" fill="#232C65"/>
</svg>
