<svg width="22" height="22" viewBox="0 0 22 22" fill="none" xmlns="http://www.w3.org/2000/svg">
<path fill-rule="evenodd" clip-rule="evenodd" d="M10.6115 1C5.30322 1 1 5.20819 1 10.3993C1 15.5903 5.30322 19.7985 10.6115 19.7985C12.8819 19.7985 14.9684 19.0287 16.613 17.7415L19.7371 20.7887L19.8202 20.8586C20.1102 21.0685 20.5214 21.0446 20.7839 20.7873C21.0726 20.5043 21.072 20.0459 20.7825 19.7636L17.6952 16.7523C19.2649 15.0794 20.223 12.8487 20.223 10.3993C20.223 5.20819 15.9198 1 10.6115 1ZM10.6116 2.44775C15.1023 2.44775 18.7427 6.00777 18.7427 10.3993C18.7427 14.7908 15.1023 18.3508 10.6116 18.3508C6.12089 18.3508 2.48047 14.7908 2.48047 10.3993C2.48047 6.00777 6.12089 2.44775 10.6116 2.44775Z" fill="#2F4F6B"/>
<path d="M16.613 17.7415L16.9621 17.3836L16.6491 17.0783L16.3048 17.3478L16.613 17.7415ZM19.7371 20.7887L19.3879 21.1466L19.401 21.1594L19.415 21.1711L19.7371 20.7887ZM19.8202 20.8586L19.4981 21.2411L19.5122 21.2529L19.527 21.2637L19.8202 20.8586ZM20.7839 20.7873L21.1339 21.1443L21.1339 21.1443L20.7839 20.7873ZM20.7825 19.7636L21.1316 19.4057L21.1316 19.4057L20.7825 19.7636ZM17.6952 16.7523L17.3305 16.4102L16.995 16.7678L17.346 17.1102L17.6952 16.7523ZM1.5 10.3993C1.5 5.4948 5.56878 1.5 10.6115 1.5V0.5C5.03766 0.5 0.5 4.92158 0.5 10.3993H1.5ZM10.6115 19.2985C5.56878 19.2985 1.5 15.3037 1.5 10.3993H0.5C0.5 15.8769 5.03766 20.2985 10.6115 20.2985V19.2985ZM16.3048 17.3478C14.7458 18.568 12.7672 19.2985 10.6115 19.2985V20.2985C12.9965 20.2985 15.1909 19.4895 16.9211 18.1352L16.3048 17.3478ZM20.0862 20.4307L16.9621 17.3836L16.2638 18.0994L19.3879 21.1466L20.0862 20.4307ZM20.1422 20.4762L20.0591 20.4062L19.415 21.1711L19.4981 21.2411L20.1422 20.4762ZM20.4338 20.4303C20.3488 20.5137 20.2097 20.5234 20.1133 20.4536L19.527 21.2637C20.0107 21.6137 20.6941 21.5756 21.1339 21.1443L20.4338 20.4303ZM20.4334 20.1215C20.5221 20.208 20.5222 20.3437 20.4338 20.4303L21.1339 21.1443C21.6229 20.6649 21.6219 19.8839 21.1316 19.4057L20.4334 20.1215ZM17.346 17.1102L20.4334 20.1215L21.1316 19.4057L18.0443 16.3943L17.346 17.1102ZM19.723 10.3993C19.723 12.7153 18.8178 14.8252 17.3305 16.4102L18.0598 17.0944C19.712 15.3335 20.723 12.9822 20.723 10.3993H19.723ZM10.6115 1.5C15.6542 1.5 19.723 5.4948 19.723 10.3993H20.723C20.723 4.92158 16.1854 0.5 10.6115 0.5V1.5ZM19.2427 10.3993C19.2427 5.72116 15.3678 1.94775 10.6116 1.94775V2.94775C14.8367 2.94775 18.2427 6.29438 18.2427 10.3993H19.2427ZM10.6116 18.8508C15.3678 18.8508 19.2427 15.0774 19.2427 10.3993H18.2427C18.2427 14.5042 14.8367 17.8508 10.6116 17.8508V18.8508ZM1.98047 10.3993C1.98047 15.0774 5.85533 18.8508 10.6116 18.8508V17.8508C6.38644 17.8508 2.98047 14.5042 2.98047 10.3993H1.98047ZM10.6116 1.94775C5.85533 1.94775 1.98047 5.72116 1.98047 10.3993H2.98047C2.98047 6.29438 6.38644 2.94775 10.6116 2.94775V1.94775Z" fill="#2F4F6B"/>
</svg>
