<svg width="103" height="100" viewBox="0 0 103 100" fill="none" xmlns="http://www.w3.org/2000/svg">
<path d="M99.7956 9.34381C99.8236 9.94733 99.8396 10.5469 99.8396 11.1426C99.8408 13.4355 99.627 15.7237 99.2011 17.9786L99.1591 17.9708C95.6907 16.5455 92.8236 14.0097 91.0303 10.7813L91.0103 10.7442C93.8735 9.94828 96.8216 9.47836 99.7956 9.34381V9.34381Z" fill="#5F6A78"/>
<path d="M74.9868 46.4063C74.2642 46.6778 73.531 46.9278 72.787 47.1563L69.7144 44.4278L67.0162 42.0294L63.6694 39.0587C63.8255 38.3672 64.0023 37.683 64.1998 37.0059C65.3589 32.98 67.1962 29.1702 69.6364 25.7325C74.7766 18.481 82.3275 13.186 91.0103 10.7442L91.0303 10.7813C92.8236 14.0097 95.6907 16.5455 99.1591 17.9708L99.2011 17.9786C97.5547 26.6652 92.8422 34.5148 85.882 40.1641C82.627 42.8156 78.9458 44.9247 74.9868 46.4063V46.4063Z" fill="#E5F5FD"/>
<path d="M96.1786 83.5489C96.702 84.0617 97.3408 84.4482 98.0442 84.6778C97.3406 84.9091 96.7016 85.2966 96.1775 85.8097C95.6534 86.3228 95.2584 86.9476 95.0236 87.6348C94.7901 86.9469 94.3956 86.3215 93.8713 85.8082C93.347 85.295 92.7074 84.9079 92.0031 84.6778C92.7073 84.448 93.3468 84.0614 93.8711 83.5484C94.3955 83.0355 94.7901 82.4104 95.0236 81.7227C95.2576 82.4109 95.6531 83.0362 96.1786 83.5489V83.5489Z" fill="#3090FC"/>
<path d="M87.0449 51.9883L79.961 59.6914L75.4392 55.6231C74.1376 54.453 73.3604 52.83 73.2757 51.1052C73.1911 49.3803 73.8058 47.6923 74.9868 46.4063C78.9458 44.9246 82.6269 42.8155 85.8819 40.1641L85.8879 40.1699C85.3604 41.0489 85.1585 42.0781 85.3159 43.085C85.4733 44.092 85.9806 45.0156 86.7527 45.7012C87.6451 46.4945 88.1782 47.6011 88.2349 48.7778C88.2916 49.9545 87.8672 51.105 87.0549 51.9766L87.0449 51.9883Z" fill="#5F6A78"/>
<path d="M79.961 59.6914L87.0449 51.9883C85.7278 71.6621 68.8637 87.2246 48.2525 87.2246C43.1765 87.2313 38.1481 86.2699 33.4501 84.3945V84.3926C54.1234 73.3203 64.8524 56.7988 68.2332 50.9316L68.3193 50.8398L68.3973 50.9102L69.7144 44.4277L72.787 47.1562C73.5296 46.9277 74.2629 46.6777 74.9868 46.4063C73.8058 47.6923 73.1911 49.3803 73.2757 51.1052C73.3604 52.83 74.1376 54.453 75.4392 55.623L79.961 59.6914Z" fill="#49BDFF"/>
<path d="M73.6497 20.9492C72.1821 22.4355 70.8399 24.0351 69.6364 25.7324C68.7889 26.3268 67.7579 26.6193 66.7159 26.561C65.6738 26.5027 64.6839 26.0971 63.9116 25.4121C63.0186 24.6186 61.8392 24.2038 60.6327 24.2587C59.4263 24.3137 58.2916 24.8339 57.4782 25.705L50.2722 33.3183L54.846 37.332C56.1447 38.4705 57.8456 39.0727 59.5904 39.0119C61.3352 38.951 62.9877 38.2319 64.1998 37.0058C64.0017 37.6836 63.8248 38.3678 63.6694 39.0586L67.0162 42.0293L60.3226 43.7363L60.3926 43.7988C58.5591 46.2265 54.0754 52.0293 48.4747 58.3457L47.4438 57.1699C47.2857 56.9902 47.1355 56.8027 46.9934 56.6093L44.9697 53.873C43.8508 52.3593 42.0613 51.3554 40.1397 51.4043C39.9467 51.4104 39.7562 51.3615 39.5912 51.2636L35.4558 48.8574C34.8602 48.5128 34.1839 48.3232 33.4917 48.3068C32.7994 48.2903 32.1145 48.4477 31.5025 48.7636L29.3226 49.8964C28.3694 50.3922 27.2598 50.5194 26.2148 50.2526C25.1698 49.9859 24.2662 49.3447 23.6839 48.457L21.5661 45.2148C21.0871 44.4809 20.8392 43.6261 20.853 42.7561C20.8669 41.8861 21.142 41.0392 21.6442 40.3203C22.1842 39.5437 22.9346 38.9286 23.8118 38.5438C24.6891 38.1589 25.6586 38.0193 26.6124 38.1406L29.787 38.5332C30.3403 38.6073 30.9037 38.5218 31.4077 38.2871C31.9117 38.0525 32.3343 37.6791 32.6234 37.2129C33.122 36.3839 33.8593 35.7163 34.7437 35.293C35.6281 34.8696 36.6205 34.7093 37.5976 34.832L38.9847 35.0039C39.4712 35.0629 39.9651 34.9981 40.4183 34.8157C40.8715 34.6333 41.2686 34.3395 41.5709 33.9629L42.7939 32.4218C43.333 31.7478 43.6361 30.9226 43.6584 30.0678C43.6808 29.213 43.4212 28.3738 42.918 27.6738L40.2798 23.9843C39.2665 22.5667 37.948 21.3822 36.4166 20.5136C36.0145 20.2849 35.6262 20.0338 35.2536 19.7617L33.0297 18.1425L30.2134 16.0859C37.1256 12.5795 44.9541 11.1691 52.6938 12.0357C60.4335 12.9022 67.7312 16.0062 73.6497 20.9492V20.9492Z" fill="#49BDFF"/>
<path d="M60.3926 43.7988L60.3226 43.7363L67.0162 42.0293L69.7144 44.4277L68.3973 50.9101L68.3193 50.8398L60.3926 43.7988Z" fill="#4A5160"/>
<path d="M68.3193 50.8398L68.2332 50.9316C64.8524 56.7988 54.1234 73.3203 33.4501 84.3926C29.8659 86.3121 26.1461 87.9798 22.3187 89.3828C22.3187 89.3828 -13.181 99.9336 12.5265 64.498C-1.12889 90.3516 23.872 79.5176 24.3805 79.2793L24.3825 79.2773C27.6852 77.6973 31.2582 75.1211 34.8352 72.0469C39.5812 67.9707 44.3332 63.0176 48.4746 58.3457C54.0753 52.0293 58.5591 46.2266 60.3926 43.7988L68.3193 50.8398Z" fill="#FADF4A"/>
<path d="M63.9116 25.412C64.6839 26.0971 65.6738 26.5027 66.7159 26.561C67.7579 26.6193 68.7888 26.3268 69.6364 25.7324C67.1962 29.1701 65.3589 32.9799 64.1998 37.0058C62.9877 38.2318 61.3352 38.951 59.5904 39.0119C57.8456 39.0727 56.1447 38.4705 54.846 37.332L50.2722 33.3183L57.4782 25.705C58.2916 24.8339 59.4263 24.3136 60.6327 24.2587C61.8392 24.2037 63.0186 24.6186 63.9116 25.412V25.412Z" fill="#5F6A78"/>
<path d="M47.4438 57.1699L48.4747 58.3457C44.3332 63.0176 39.5812 67.9707 34.8352 72.0469L34.7031 71.9024C34.5067 71.2588 34.1912 70.6558 33.7724 70.1231L29.2826 64.4121C28.8788 63.8982 28.5798 63.3134 28.4019 62.6895L26.9206 57.5039C26.6567 56.5958 26.1569 55.7696 25.4695 55.1054C24.7822 54.4412 23.9306 53.9615 22.9973 53.7129L22.6751 53.6289C22.0216 53.4548 21.4212 53.1284 20.9256 52.6777L18.1613 50.1543C17.7241 49.7543 17.348 49.2952 17.0444 48.791C16.3984 47.7152 15.4258 46.8617 14.2611 46.3488C13.0964 45.8358 11.7971 45.6887 10.5429 45.9277L10.0125 46.0293L9.54608 45.9863C10.7851 32.9746 18.8399 21.877 30.2134 16.0859L33.0297 18.1426L35.2536 19.7617C35.6262 20.0338 36.0145 20.2849 36.4166 20.5137C37.948 21.3823 39.2664 22.5668 40.2798 23.9844L42.918 27.6738C43.4212 28.3739 43.6808 29.213 43.6584 30.0678C43.6361 30.9226 43.333 31.7478 42.7939 32.4219L41.5709 33.9629C41.2686 34.3395 40.8715 34.6333 40.4183 34.8157C39.9651 34.9982 39.4712 35.063 38.9847 35.0039L37.5976 34.832C36.6205 34.7094 35.6281 34.8697 34.7437 35.293C33.8593 35.7163 33.122 36.3839 32.6234 37.2129C32.3343 37.6791 31.9117 38.0526 31.4077 38.2872C30.9037 38.5218 30.3403 38.6073 29.787 38.5332L26.6124 38.1406C25.6586 38.0194 24.6891 38.1589 23.8119 38.5438C22.9346 38.9287 22.1842 39.5437 21.6442 40.3203C21.142 41.0393 20.8669 41.8862 20.853 42.7562C20.8392 43.6261 21.0871 44.481 21.5661 45.2149L23.6839 48.457C24.2662 49.3448 25.1698 49.9859 26.2148 50.2527C27.2598 50.5194 28.3694 50.3923 29.3226 49.8965L31.5025 48.7637C32.1145 48.4477 32.7994 48.2904 33.4917 48.3068C34.1839 48.3232 34.8602 48.5128 35.4558 48.8574L39.5912 51.2637C39.7561 51.3616 39.9467 51.4104 40.1397 51.4043C42.0613 51.3555 43.8508 52.3594 44.9697 53.8731L46.9934 56.6094C47.1355 56.8027 47.2857 56.9902 47.4438 57.1699V57.1699Z" fill="#9BE147"/>
<path d="M45.6363 93.7657C46.159 94.2797 46.798 94.667 47.5019 94.8965C46.7982 95.1271 46.159 95.5141 45.6348 96.0269C45.1106 96.5397 44.7158 97.1644 44.4813 97.8516C44.2481 97.1638 43.8536 96.5385 43.3292 96.0256C42.8049 95.5126 42.1651 95.126 41.4608 94.8965C42.1648 94.666 42.8042 94.2788 43.3285 93.7656C43.8527 93.2524 44.2474 92.6272 44.4813 91.9395C44.7158 92.6275 45.1112 93.2527 45.6363 93.7657V93.7657Z" fill="#3090FC"/>
<path d="M35.768 3.97461C36.2925 4.48704 36.9318 4.87351 37.6356 5.10352C36.9316 5.33406 36.2922 5.72125 35.7679 6.23446C35.2437 6.74768 34.849 7.37285 34.6151 8.06055C34.3812 7.3728 33.9866 6.74758 33.4623 6.23435C32.9381 5.72112 32.2986 5.33397 31.5945 5.10352C32.2987 4.87377 32.9383 4.48709 33.4626 3.97415C33.9869 3.4612 34.3815 2.83611 34.6151 2.14844C34.8491 2.83615 35.2438 3.46134 35.768 3.97461V3.97461Z" fill="#3090FC"/>
<path d="M34.7032 71.9024L34.8353 72.0469C31.2583 75.1212 27.6853 77.6973 24.3825 79.2774L24.3805 79.2794C19.232 75.392 15.1681 70.3036 12.5626 64.4825C10.4551 59.7576 9.37093 54.6589 9.37796 49.5059C9.37796 48.3184 9.43401 47.1453 9.5461 45.9864L10.0125 46.0294L10.5429 45.9278C11.7971 45.6888 13.0964 45.8359 14.2611 46.3489C15.4259 46.8618 16.3984 47.7152 17.0444 48.7911C17.348 49.2953 17.7241 49.7544 18.1613 50.1544L20.9256 52.6778C21.4212 53.1285 22.0216 53.4549 22.6751 53.629L22.9974 53.713C23.9306 53.9616 24.7822 54.4412 25.4696 55.1054C26.1569 55.7696 26.6568 56.5958 26.9207 57.504L28.4019 62.6895C28.5798 63.3134 28.8788 63.8982 29.2826 64.4122L33.7724 70.1231C34.1913 70.6559 34.5067 71.2589 34.7032 71.9024V71.9024Z" fill="#49BDFF"/>
<path d="M85.972 24.1601C86.6771 24.7865 87.176 25.6027 87.4056 26.5057C87.6352 27.4087 87.5853 28.3578 87.2621 29.2331C86.939 30.1084 86.3571 30.8706 85.59 31.4232C84.8229 31.9758 83.9051 32.2941 82.9527 32.3378C82.0003 32.3815 81.0559 32.1486 80.2391 31.6687C79.4223 31.1887 78.7697 30.4832 78.3637 29.6414C77.9578 28.7995 77.8168 27.8591 77.9586 26.9391C78.1004 26.0191 78.5186 25.1608 79.1603 24.4726C80.0212 23.55 81.2225 22.9987 82.4999 22.9401C83.7773 22.8815 85.0262 23.3204 85.972 24.1601V24.1601Z" fill="#5F6A78"/>
<path d="M64.7222 50.4765C64.7352 50.7258 64.7123 50.9756 64.6542 51.2187C64.5299 51.7383 64.2512 52.2106 63.8532 52.5764C63.4551 52.9422 62.9553 53.1853 62.4163 53.2753L58.9034 53.8652L59.1756 50.3964C59.2289 49.7077 59.5496 49.0649 60.0722 48.599C60.5947 48.1331 61.2798 47.8794 61.9876 47.8896C62.6953 47.8999 63.3724 48.1732 63.8806 48.654C64.3888 49.1347 64.6898 49.7866 64.7222 50.4765V50.4765Z" fill="#ED6337"/>
<path d="M48.2525 11.787C41.9718 11.7767 35.7821 13.2518 30.2134 16.0859L33.0297 18.1425L35.2536 19.7617L35.8181 19.9921C41.6875 17.0164 48.2344 15.5416 54.8467 15.7058C61.459 15.8699 67.9206 17.6676 73.6273 20.9308C66.5646 15.0155 57.5602 11.7708 48.2525 11.787V11.787Z" fill="#3090FC"/>
<path d="M35.6884 20.0607C35.5418 19.9631 35.3955 19.8654 35.2536 19.7617L33.0297 18.1426L30.2134 16.0859C18.8399 21.877 10.7851 32.9746 9.54608 45.9863L10.0125 46.0293L10.5429 45.9277C11.4117 45.762 12.307 45.7812 13.1675 45.9838C14.0281 46.1864 14.8337 46.5678 15.5295 47.102C17.568 35.3535 25.2048 25.4482 35.6884 20.0607V20.0607Z" fill="#50DD5A"/>
<path d="M18.7678 65.8496C16.6603 61.1248 15.5761 56.026 15.5832 50.8731C15.5832 49.6856 15.6392 48.5124 15.7513 47.3535L15.8496 47.3625C15.1398 46.738 14.2908 46.2833 13.3697 46.0343C12.4487 45.7853 11.4809 45.7488 10.5429 45.9277L10.0125 46.0293L9.5461 45.9863C9.43401 47.1452 9.37796 48.3184 9.37796 49.5059C9.37093 54.6588 10.4551 59.7576 12.5626 64.4824C15.1681 70.3036 19.232 75.3919 24.3805 79.2793L24.3825 79.2773C25.3416 78.8134 26.2758 78.3019 27.1815 77.7449C23.6184 74.3452 20.7616 70.3061 18.7678 65.8496V65.8496Z" fill="#3090FC"/>
<path d="M19.8565 16.5901C20.1307 16.5903 20.3967 16.4986 20.6099 16.3303C21.3672 15.7342 22.153 15.1565 22.9457 14.6129C23.0747 14.5244 23.1846 14.412 23.2692 14.2821C23.3537 14.1521 23.4111 14.0072 23.4382 13.8556C23.4654 13.704 23.4616 13.5487 23.4272 13.3985C23.3928 13.2483 23.3284 13.1062 23.2377 12.9803C23.147 12.8544 23.0318 12.7471 22.8987 12.6647C22.7655 12.5822 22.617 12.5262 22.4616 12.4997C22.3062 12.4732 22.1471 12.4769 21.9931 12.5105C21.8392 12.544 21.6936 12.6068 21.5645 12.6953C20.7286 13.2684 19.8999 13.8778 19.1025 14.5061C18.909 14.6583 18.7688 14.8654 18.701 15.0987C18.6333 15.332 18.6413 15.5801 18.7242 15.8087C18.807 16.0373 18.9604 16.2353 19.1634 16.3752C19.3663 16.5152 19.6088 16.5902 19.8573 16.5901H19.8565Z" fill="#284268"/>
<path d="M5.55897 35.078C5.70637 35.1328 5.8634 35.1587 6.02108 35.1542C6.17875 35.1497 6.33398 35.115 6.47788 35.0519C6.62177 34.9889 6.75152 34.8988 6.85969 34.7867C6.96785 34.6747 7.05233 34.543 7.10827 34.3991C9.3163 28.7379 12.7441 23.6052 17.1599 19.3479C17.2742 19.2399 17.3653 19.1109 17.428 18.9682C17.4908 18.8256 17.5238 18.6723 17.5253 18.5171C17.5268 18.3619 17.4967 18.2079 17.4368 18.0642C17.3768 17.9204 17.2881 17.7897 17.176 17.6797C17.0638 17.5697 16.9304 17.4824 16.7834 17.4231C16.6364 17.3638 16.4788 17.3336 16.3197 17.3342C16.1607 17.3348 16.0033 17.3662 15.8568 17.4266C15.7103 17.487 15.5776 17.5753 15.4663 17.6862C10.8078 22.1783 7.19191 27.5938 4.86299 33.5668C4.75002 33.8573 4.75988 34.1796 4.89039 34.463C5.0209 34.7463 5.26138 34.9675 5.55897 35.078V35.078Z" fill="#284268"/>
<path d="M87.745 70.8503C87.6096 70.7713 87.4597 70.7191 87.3036 70.6966C87.1476 70.6742 86.9885 70.6819 86.8355 70.7194C86.6825 70.757 86.5386 70.8235 86.412 70.9153C86.2854 71.0071 86.1786 71.1224 86.0976 71.2545C85.425 72.3517 84.6904 73.4345 83.9144 74.4732C83.8191 74.5974 83.7501 74.7388 83.7113 74.8892C83.6725 75.0396 83.6646 75.1961 83.6883 75.3495C83.7119 75.5029 83.7665 75.6502 83.8489 75.7828C83.9313 75.9154 84.0398 76.0308 84.1683 76.1222C84.2967 76.2136 84.4425 76.2792 84.5971 76.3152C84.7517 76.3512 84.9122 76.3569 85.0691 76.332C85.226 76.307 85.3762 76.252 85.5111 76.1699C85.6461 76.0879 85.7629 75.9805 85.855 75.8541C86.6739 74.7584 87.4491 73.6156 88.1591 72.4576C88.3226 72.1909 88.3709 71.8717 88.2932 71.5703C88.2155 71.2689 88.0183 71.0099 87.745 70.8503V70.8503Z" fill="#284268"/>
<path d="M92.7824 62.1308C93.4652 59.8487 93.9605 57.5171 94.2637 55.1582C94.5035 53.2836 94.6238 51.3963 94.624 49.5072C94.624 49.1964 94.4974 48.8983 94.2722 48.6786C94.047 48.4588 93.7415 48.3353 93.4229 48.3353C93.1044 48.3353 92.7989 48.4588 92.5737 48.6786C92.3485 48.8983 92.2219 49.1964 92.2219 49.5072C92.2222 51.2989 92.1086 53.089 91.8817 54.867C91.5945 57.1022 91.1255 59.3116 90.4789 61.4742C90.0868 62.7828 89.624 64.0879 89.1031 65.3517C88.7829 66.1283 88.4356 66.9037 88.0701 67.6564C87.9337 67.9373 87.9173 68.2596 88.0245 68.5523C88.1316 68.845 88.3536 69.0842 88.6415 69.2173C88.9293 69.3503 89.2596 69.3663 89.5596 69.2618C89.8596 69.1572 90.1047 68.9407 90.2411 68.6598C90.627 67.8644 90.9939 67.0455 91.332 66.2256C91.8799 64.8906 92.3685 63.5131 92.7824 62.1308V62.1308Z" fill="#284268"/>
<path d="M26.7785 12.4208C27.5441 12.4208 28.1647 11.8158 28.1647 11.0694C28.1647 10.3231 27.5441 9.71808 26.7785 9.71808C26.0129 9.71808 25.3923 10.3231 25.3923 11.0694C25.3923 11.8158 26.0129 12.4208 26.7785 12.4208Z" fill="#284268"/>
<path d="M81.5742 77.4315C81.3003 77.4317 81.0325 77.5111 80.8049 77.6597C80.5772 77.8083 80.3998 78.0195 80.2952 78.2665C80.1905 78.5135 80.1632 78.7852 80.2167 79.0473C80.2703 79.3094 80.4023 79.5501 80.5961 79.7391C80.7898 79.928 81.0366 80.0566 81.3053 80.1087C81.574 80.1608 81.8524 80.1339 82.1055 80.0316C82.3585 79.9293 82.5748 79.756 82.727 79.5338C82.8791 79.3116 82.9603 79.0503 82.9603 78.783C82.9598 78.4245 82.8136 78.0809 82.5537 77.8275C82.2938 77.5742 81.9415 77.4317 81.5742 77.4315V77.4315Z" fill="#284268"/>
<path d="M69.2313 93.7238C68.9141 93.7238 68.604 93.8156 68.3403 93.9876C68.0766 94.1595 67.871 94.4039 67.7496 94.6899C67.6282 94.9758 67.5965 95.2905 67.6584 95.594C67.7203 95.8976 67.8731 96.1764 68.0974 96.3953C68.3217 96.6141 68.6074 96.7631 68.9186 96.8235C69.2297 96.8838 69.5521 96.8528 69.8452 96.7343C70.1382 96.6159 70.3887 96.4153 70.5649 96.1579C70.7411 95.9005 70.8351 95.598 70.835 95.2885C70.8345 94.8736 70.6654 94.4759 70.3647 94.1826C70.0641 93.8893 69.6565 93.7243 69.2313 93.7238V93.7238Z" fill="#284268"/>
<path d="M71.6477 92.3344C72.867 92.3344 73.8555 91.3698 73.8555 90.1801C73.8555 88.9903 72.867 88.0258 71.6477 88.0258C70.4283 88.0258 69.4398 88.9903 69.4398 90.1801C69.4398 91.3698 70.4283 92.3344 71.6477 92.3344Z" fill="#284268"/>
<path d="M8.41936 10.7953C8.73655 10.7953 9.04661 10.7035 9.31035 10.5316C9.57408 10.3596 9.77964 10.1152 9.90102 9.82927C10.0224 9.54334 10.0542 9.2287 9.99229 8.92515C9.9304 8.6216 9.77766 8.34277 9.55338 8.12392C9.32909 7.90507 9.04333 7.75604 8.73223 7.69566C8.42114 7.63528 8.09868 7.66627 7.80563 7.78471C7.51258 7.90315 7.26211 8.10372 7.08589 8.36105C6.90967 8.61839 6.81561 8.92094 6.81561 9.23043C6.81609 9.64531 6.98521 10.0431 7.28587 10.3364C7.58652 10.6298 7.99416 10.7948 8.41936 10.7953V10.7953Z" fill="#284268"/>
<path d="M10.8358 6.27612C11.2724 6.27612 11.6992 6.1498 12.0623 5.91311C12.4254 5.67643 12.7084 5.34002 12.8755 4.94642C13.0426 4.55282 13.0864 4.1197 13.0013 3.70183C12.9161 3.28396 12.7059 2.9001 12.3972 2.59879C12.0886 2.29747 11.6952 2.09223 11.267 2.00902C10.8388 1.92581 10.3949 1.96836 9.99143 2.13129C9.58798 2.29423 9.24311 2.57023 9.00041 2.9244C8.75771 3.27857 8.62809 3.695 8.62793 4.12105C8.6283 4.69236 8.86101 5.24019 9.27495 5.64424C9.6889 6.0483 10.2503 6.27555 10.8358 6.27612V6.27612Z" fill="#284268"/>
<path d="M31.2142 6.21573C31.7409 6.38927 32.2192 6.67949 32.6116 7.06362C33.004 7.44776 33.2999 7.91537 33.4761 8.42979C33.5557 8.66332 33.7086 8.86648 33.9132 9.01045C34.1177 9.15443 34.3636 9.23191 34.6158 9.23191C34.868 9.23191 35.1138 9.15443 35.3184 9.01045C35.5229 8.86648 35.6759 8.66332 35.7554 8.42979C35.9316 7.91538 36.2276 7.44779 36.62 7.06366C37.0124 6.67953 37.4907 6.3893 38.0173 6.21573C38.2562 6.13781 38.464 5.98856 38.6112 5.78911C38.7584 5.58966 38.8376 5.35009 38.8376 5.1043C38.8376 4.85852 38.7584 4.61895 38.6112 4.4195C38.464 4.22004 38.2562 4.0708 38.0173 3.99288C37.4907 3.81925 37.0124 3.52898 36.62 3.14481C36.2276 2.76065 35.9317 2.29304 35.7554 1.77862C35.6759 1.54509 35.5229 1.34193 35.3184 1.19796C35.1138 1.05398 34.868 0.976501 34.6158 0.976501C34.3636 0.976501 34.1177 1.05398 33.9132 1.19796C33.7086 1.34193 33.5557 1.54509 33.4761 1.77862C33.2999 2.29306 33.004 2.7607 32.6116 3.14486C32.2192 3.52903 31.7409 3.81929 31.2142 3.99288C30.9753 4.0708 30.7676 4.22004 30.6204 4.4195C30.4732 4.61895 30.394 4.85852 30.394 5.1043C30.394 5.35009 30.4732 5.58966 30.6204 5.78911C30.7676 5.98856 30.9753 6.13781 31.2142 6.21573ZM34.6155 4.47745C34.8127 4.70148 35.0268 4.91079 35.256 5.10362C35.0268 5.29644 34.8127 5.50575 34.6155 5.72979C34.4182 5.50584 34.2041 5.29654 33.9749 5.10362C34.2039 4.91087 34.4179 4.70176 34.6151 4.47803L34.6155 4.47745Z" fill="#284268"/>
<path d="M47.8832 93.7842C47.3565 93.6106 46.8783 93.3204 46.4858 92.9363C46.0934 92.5521 45.7975 92.0845 45.6213 91.5701C45.5417 91.3366 45.3888 91.1334 45.1842 90.9895C44.9797 90.8455 44.7338 90.768 44.4816 90.768C44.2294 90.768 43.9836 90.8455 43.779 90.9895C43.5745 91.1334 43.4216 91.3366 43.342 91.5701C43.1658 92.0845 42.8699 92.5522 42.4774 92.9363C42.085 93.3204 41.6067 93.6106 41.0801 93.7842C40.8412 93.8621 40.6334 94.0114 40.4862 94.2108C40.339 94.4103 40.2598 94.6498 40.2598 94.8956C40.2598 95.1414 40.339 95.381 40.4862 95.5804C40.6334 95.7799 40.8412 95.9291 41.0801 96.007C41.6067 96.1806 42.085 96.4709 42.4775 96.8551C42.8699 97.2392 43.1658 97.7069 43.342 98.2213C43.4216 98.4548 43.5745 98.658 43.779 98.802C43.9836 98.9459 44.2294 99.0234 44.4816 99.0234C44.7338 99.0234 44.9797 98.9459 45.1842 98.802C45.3888 98.658 45.5417 98.4548 45.6213 98.2213C45.7975 97.7069 46.0934 97.2392 46.4858 96.8551C46.8782 96.4709 47.3565 96.1806 47.8832 96.007C48.1221 95.9291 48.3298 95.7799 48.477 95.5804C48.6242 95.381 48.7034 95.1414 48.7034 94.8956C48.7034 94.6498 48.6242 94.4103 48.477 94.2108C48.3298 94.0114 48.1221 93.8621 47.8832 93.7842V93.7842ZM44.4819 95.5225C44.2847 95.2985 44.0706 95.0892 43.8414 94.8963C44.0705 94.7034 44.2846 94.4941 44.4819 94.2701C44.6791 94.4942 44.8932 94.7035 45.1225 94.8963C44.8932 95.0889 44.6791 95.298 44.4819 95.5219V95.5225Z" fill="#284268"/>
<path d="M98.4255 83.567C97.8988 83.3934 97.4206 83.1032 97.0281 82.7191C96.6357 82.335 96.3398 81.8674 96.1636 81.353C96.084 81.1194 95.9311 80.9163 95.7265 80.7723C95.522 80.6283 95.2761 80.5508 95.0239 80.5508C94.7717 80.5508 94.5259 80.6283 94.3213 80.7723C94.1168 80.9163 93.9639 81.1194 93.8843 81.353C93.7081 81.8674 93.4122 82.335 93.0197 82.7191C92.6273 83.1033 92.149 83.3935 91.6224 83.567C91.3835 83.6449 91.1757 83.7942 91.0285 83.9936C90.8813 84.1931 90.8021 84.4327 90.8021 84.6784C90.8021 84.9242 90.8813 85.1638 91.0285 85.3632C91.1757 85.5627 91.3835 85.7119 91.6224 85.7899C92.149 85.9635 92.6273 86.2537 93.0198 86.6379C93.4122 87.022 93.7081 87.4897 93.8843 88.0041C93.9639 88.2377 94.1168 88.4408 94.3213 88.5848C94.5259 88.7288 94.7717 88.8062 95.0239 88.8062C95.2761 88.8062 95.522 88.7288 95.7265 88.5848C95.9311 88.4408 96.084 88.2377 96.1636 88.0041C96.3398 87.4897 96.6357 87.0221 97.0281 86.6379C97.4206 86.2538 97.8988 85.9635 98.4255 85.7899C98.6644 85.7119 98.8721 85.5627 99.0193 85.3632C99.1665 85.1638 99.2457 84.9242 99.2457 84.6784C99.2457 84.4327 99.1665 84.1931 99.0193 83.9936C98.8721 83.7942 98.6644 83.6449 98.4255 83.567V83.567ZM95.0242 85.3053C94.8269 85.0814 94.6128 84.8721 94.3837 84.6791C94.6128 84.4862 94.8269 84.2769 95.0242 84.053C95.2214 84.277 95.4355 84.4864 95.6648 84.6791C95.4355 84.8717 95.2214 85.0808 95.0242 85.3047V85.3053Z" fill="#284268"/>
<path d="M99.739 8.17311C90.8552 8.5596 82.3629 11.8507 75.6282 17.5171C74.9196 18.1089 74.2347 18.724 73.5735 19.3626C66.4103 13.7008 57.4708 10.6128 48.2523 10.6159C26.1538 10.6159 8.17595 28.0622 8.17595 49.5063C8.16915 54.5929 9.18941 59.6311 11.1785 64.3329C2.63171 76.2376 0.0681639 84.1887 3.34971 88.6247C5.28993 91.2473 8.9576 92.0135 12.5818 92.0135C17.4929 92.0135 22.3242 90.6073 22.6703 90.5038C22.6947 90.4966 22.7189 90.4885 22.7427 90.4798C26.4473 89.122 30.0534 87.5208 33.5362 85.6874C40.6094 88.3914 48.3219 89.0891 55.784 87.6999C63.2461 86.3106 70.1536 82.8911 75.7095 77.8358C83.0023 71.2104 87.4672 62.1459 88.2136 52.4505C89.1091 51.3345 89.5395 49.9296 89.4186 48.5171C89.2977 47.1046 88.6345 45.7889 87.5616 44.8333C87.0195 44.3482 86.6552 43.7032 86.5244 42.9969C86.3936 42.2907 86.5035 41.562 86.8374 40.9225C91.5263 37.0629 95.242 32.2022 97.697 26.7167C100.152 21.2312 101.28 15.268 100.995 9.28874C100.988 9.1349 100.95 8.98393 100.883 8.8445C100.816 8.70507 100.721 8.57993 100.605 8.47626C100.488 8.3726 100.351 8.29245 100.203 8.24042C100.054 8.1884 99.8966 8.16552 99.739 8.17311V8.17311ZM48.2527 12.9596C56.8521 12.9568 65.1956 15.8148 71.9061 21.062C70.7938 22.2666 69.7581 23.5366 68.8049 24.8647C68.1829 25.2576 67.4453 25.4392 66.7067 25.3813C65.9681 25.3234 65.2697 25.0293 64.7199 24.5446C63.5924 23.543 62.1036 23.019 60.5805 23.0876C59.0574 23.1562 57.6244 23.8118 56.5963 24.9104L49.3895 32.5225C49.2816 32.6366 49.198 32.7704 49.1435 32.9163C49.0891 33.0622 49.0649 33.2171 49.0724 33.3722C49.0798 33.5272 49.1188 33.6793 49.1869 33.8195C49.2551 33.9598 49.3512 34.0854 49.4695 34.1891L54.0433 38.203C55.4986 39.4799 57.3875 40.1846 59.3446 40.1807C60.4542 40.1807 61.5517 39.9554 62.5673 39.519C62.6342 39.6733 62.7344 39.8117 62.8609 39.9249L64.5694 41.4424L60.0184 42.603C59.8091 42.6563 59.6186 42.7638 59.4667 42.9141C59.3149 43.0643 59.2075 43.2518 59.1558 43.4567V43.4608C57.3033 45.9008 53.373 50.9544 48.4783 56.5458L48.3582 56.409C48.2219 56.2528 48.0904 56.0901 47.9681 55.9245L45.9446 53.1882C44.569 51.3274 42.4599 50.2307 40.2746 50.2307C40.2372 50.2307 40.1994 50.2307 40.1617 50.2307L36.0703 47.8501C35.2969 47.4031 34.4189 47.1573 33.5203 47.1362C32.6217 47.115 31.7326 47.3192 30.938 47.7292L28.7588 48.862C28.0718 49.2167 27.2734 49.3071 26.5214 49.1155C25.7693 48.9238 25.1183 48.464 24.6968 47.8268L22.58 44.5846C22.2268 44.0444 22.044 43.4148 22.0543 42.774C22.0645 42.1333 22.2674 41.5096 22.6377 40.9803C23.0537 40.3828 23.6315 39.9098 24.3068 39.6139C24.9821 39.318 25.7284 39.2108 26.4625 39.3044L29.6375 39.695C30.4242 39.7996 31.225 39.6762 31.9403 39.3402C32.6557 39.0042 33.254 38.4704 33.6609 37.8051C34.04 37.1741 34.6011 36.6659 35.2742 36.3439C35.9473 36.0218 36.7026 35.9002 37.4461 35.9942L38.8346 36.1663C39.5282 36.251 40.2324 36.1585 40.8783 35.898C41.5243 35.6374 42.0898 35.2177 42.5197 34.6799L43.7431 33.1399C44.4404 32.2688 44.8323 31.2022 44.8611 30.0973C44.8899 28.9924 44.5542 27.9077 43.9033 27.0032L41.2659 23.313C40.1504 21.7576 38.7026 20.4566 37.0223 19.4997C36.6596 19.2936 36.3092 19.0676 35.9728 18.8227L32.5203 16.3032C37.4559 14.0943 42.8228 12.9537 48.2527 12.9596V12.9596ZM66.9307 27.7294C65.3106 30.4543 64.0347 33.3607 63.131 36.385C62.1182 37.3058 60.7893 37.824 59.4051 37.8378C58.0208 37.8516 56.6813 37.36 55.6495 36.4596L51.9796 33.2405L58.3666 26.4946C58.663 26.1769 59.0206 25.9193 59.419 25.7364C59.8175 25.5536 60.2489 25.4491 60.6887 25.429C61.1285 25.4088 61.5681 25.4734 61.9824 25.6191C62.3966 25.7647 62.7774 25.9886 63.1029 26.2778C64.1523 27.2048 65.5152 27.7216 66.9307 27.7294V27.7294ZM62.7673 44.3241L66.6873 43.3241L68.4044 44.8491L67.6333 48.6465L62.7673 44.3241ZM63.5233 50.5309C63.5419 50.9063 63.419 51.2754 63.1777 51.5683C62.9364 51.8613 62.5935 52.0579 62.2138 52.121L60.2179 52.4555L60.3724 50.486C60.398 50.1777 60.5175 49.8838 60.7154 49.6422C60.9134 49.4006 61.1808 49.2222 61.4834 49.1299C61.6097 49.0921 61.7403 49.0701 61.8723 49.0643C61.8975 49.0632 61.9227 49.0626 61.948 49.0626C62.3535 49.0632 62.7433 49.216 63.0366 49.4893C63.3298 49.7627 63.5041 50.1356 63.5233 50.5309ZM30.1201 17.4803L34.5344 20.7012C34.9441 20.9995 35.3708 21.2748 35.8125 21.5258C37.1915 22.3107 38.3798 23.3779 39.2954 24.654L41.9328 28.3444C42.2889 28.8396 42.4727 29.4334 42.4569 30.0382C42.4412 30.643 42.2268 31.2268 41.8453 31.7038L40.6221 33.2436C40.4486 33.4599 40.2207 33.6286 39.9605 33.7332C39.7003 33.8379 39.4167 33.875 39.1375 33.8409L37.7491 33.6686C36.5385 33.5164 35.3088 33.7152 34.2133 34.2403C33.1177 34.7653 32.2048 35.5934 31.5883 36.6214C31.4167 36.888 31.1697 37.1005 30.8771 37.2332C30.5844 37.3659 30.2587 37.4131 29.9392 37.3692L26.7647 36.9786C25.5914 36.8293 24.3986 37.001 23.3195 37.4745C22.2403 37.948 21.3172 38.7047 20.653 39.6602C20.018 40.5682 19.6702 41.6382 19.6527 42.7373C19.6353 43.8365 19.9489 44.9164 20.5547 45.8432L22.6715 49.0854C23.4198 50.2183 24.5763 51.0362 25.9125 51.3776C27.2488 51.719 28.6676 51.559 29.8889 50.9294L32.068 49.7965C32.4972 49.5752 32.9775 49.4649 33.4628 49.4763C33.9482 49.4878 34.4225 49.6205 34.8403 49.8618L38.9763 52.2698C39.3372 52.4796 39.7516 52.5854 40.1715 52.5749C41.6203 52.5405 43.0513 53.2794 43.9967 54.5585L46.0204 57.2952C46.1806 57.5128 46.3535 57.7262 46.5325 57.9305L46.89 58.3387C46.2802 59.02 45.6591 59.7046 45.0264 60.3924C41.5327 64.1872 38.2657 67.4365 35.2256 70.1401C35.0754 69.8857 34.9083 69.6412 34.7252 69.4083L30.2356 63.6973C29.9249 63.3029 29.6949 62.8538 29.5583 62.3745L28.077 57.1878C27.7573 56.0844 27.1506 55.0804 26.3159 54.2733C25.4812 53.4662 24.4467 52.8834 23.313 52.5815L22.99 52.496C22.5256 52.3729 22.099 52.1411 21.7471 51.8208L18.9824 49.2979C18.6292 48.9755 18.3255 48.6052 18.0806 48.1983C17.3592 47.0003 16.298 46.0315 15.025 45.4088C13.7519 44.7861 12.3214 44.5361 10.906 44.6889C12.5054 32.9596 19.8605 22.9686 30.1201 17.4803V17.4803ZM10.5784 49.5063C10.5784 48.6973 10.6084 47.8952 10.6622 47.0993L10.7739 47.0778C11.784 46.8865 12.8301 47.0057 13.7678 47.419C14.7056 47.8323 15.4888 48.5193 16.0095 49.3852C16.3711 49.9862 16.8196 50.5332 17.3412 51.0092L20.1049 53.5331C20.7431 54.1145 21.5171 54.5353 22.3596 54.7589L22.6829 54.8444C23.4155 55.0388 24.0842 55.4148 24.6239 55.9358C25.1636 56.4569 25.5561 57.1053 25.7631 57.818L27.2443 63.0048C27.4631 63.7728 27.8314 64.4926 28.3292 65.1247L32.8188 70.8356C33.0391 71.1177 33.2229 71.4251 33.3662 71.751C30.1202 74.4822 27.173 76.5286 24.5246 77.8905C20.1627 74.4867 16.6435 70.1669 14.2289 65.2527C11.8144 60.3384 10.5666 54.9561 10.5784 49.5063V49.5063ZM12.52 67.1626C14.8849 71.6558 18.1252 75.6558 22.0596 78.9385C18.7942 80.1048 12.8214 81.6663 10.6084 79.4335C8.85852 77.669 9.5441 73.3491 12.5186 67.1628L12.52 67.1626ZM21.9343 88.2723C18.2712 89.351 8.24821 91.2436 5.29714 87.2514C3.98905 85.4819 3.61573 81.9247 7.38089 74.7833C6.97775 77.586 7.48737 79.6753 8.90636 81.0876C10.2567 82.4313 12.2341 82.9016 14.3433 82.9016C19.236 82.9016 24.8321 80.3678 24.9122 80.33C30.8329 77.495 38.2017 71.3143 46.8141 61.9594C52.895 55.3546 58.0349 48.8434 60.5668 45.5374L61.9017 46.7231C61.8547 46.7231 61.8083 46.7208 61.7616 46.7231C60.7917 46.7674 59.8719 47.1562 59.1753 47.8162C58.4788 48.4763 58.0536 49.362 57.9798 50.3067L57.7078 53.7755C57.6939 53.9532 57.7217 54.1317 57.7891 54.2974C57.8565 54.4631 57.9618 54.6116 58.0969 54.7316C58.232 54.8515 58.3934 54.9399 58.5688 54.9898C58.7442 55.0398 58.9289 55.05 59.109 55.0198L62.6235 54.4309C63.5804 54.2707 64.4441 53.7745 65.0519 53.0358C65.6597 52.2972 65.9696 51.3672 65.9233 50.421C65.9211 50.3751 65.9137 50.3301 65.9099 50.2842L66.7788 51.0561C61.7362 59.5743 47.9921 78.7057 21.9335 88.2725L21.9343 88.2723ZM74.0683 76.1239C69.0914 80.6498 62.9579 83.7851 56.3112 85.201C49.6645 86.6168 42.7498 86.261 36.2927 84.1708C54.7339 73.6063 64.9539 58.9089 69.0579 51.8895C69.1911 51.8041 69.3055 51.6937 69.3945 51.5648C69.4835 51.4358 69.5453 51.2909 69.5764 51.1383L70.4791 46.6919L71.9782 48.0235C72.1257 48.1528 72.304 48.2442 72.4968 48.2895C72.0023 49.71 71.9401 51.2399 72.3177 52.6942C72.6953 54.1484 73.4965 55.4648 74.6246 56.4842L79.1484 60.5528C79.3701 60.7523 79.6608 60.8631 79.9624 60.8632C79.9813 60.8632 80.0003 60.8632 80.0193 60.8618C80.1782 60.8544 80.3341 60.8163 80.4778 60.7497C80.6215 60.6831 80.7502 60.5893 80.8564 60.4737L85.4202 55.5096C84.0699 63.4151 80.0785 70.663 74.0675 76.1249L74.0683 76.1239ZM86.1602 51.1946L79.8808 58.0245L76.2519 54.7608C75.2211 53.8289 74.591 52.5501 74.4889 51.1826C74.3868 49.8151 74.8202 48.4607 75.7017 47.3928C78.6737 46.2572 81.4946 44.7759 84.1031 42.9811C84.2429 44.3567 84.8982 45.6335 85.9433 46.5667C86.6006 47.1525 86.9927 47.969 87.0333 48.8368C87.074 49.7046 86.76 50.5526 86.1602 51.1946V51.1946ZM73.0789 45.8317L64.9971 38.6522C66.8838 31.1137 71.1487 24.3434 77.1901 19.2967C81.0592 16.049 85.5682 13.6076 90.4398 12.1227C92.2158 14.9453 94.7799 17.215 97.8314 18.6657C96.4841 24.9036 93.4921 30.6906 89.1511 35.4549C84.81 40.2192 79.2702 43.7959 73.0789 45.8317ZM98.2664 16.2499C96.1018 15.1003 94.2506 13.4622 92.8672 11.4721C94.7626 11.0326 96.6899 10.7372 98.6321 10.5885C98.6605 12.482 98.5382 14.3748 98.2664 16.2499Z" fill="#284268"/>
<path d="M86.7808 23.2936C86.0574 22.6514 85.1847 22.1907 84.238 21.9513C83.2912 21.712 82.299 21.7013 81.3471 21.92C80.3952 22.1388 79.5122 22.5805 78.7744 23.2069C78.0367 23.8334 77.4664 24.6257 77.1129 25.5154C76.7593 26.4052 76.6332 27.3655 76.7454 28.3135C76.8575 29.2614 77.2046 30.1685 77.7566 30.9562C78.3087 31.7439 79.049 32.3886 79.9136 32.8345C80.7782 33.2804 81.7412 33.5141 82.7191 33.5155C82.8152 33.5155 82.9116 33.5133 83.0084 33.5089C84.1982 33.4544 85.3447 33.0569 86.3029 32.3666C87.2611 31.6764 87.9881 30.7243 88.3918 29.631C88.7955 28.5376 88.8578 27.3519 88.5709 26.2239C88.284 25.096 87.6608 24.0763 86.78 23.294L86.7808 23.2936ZM85.4036 30.0167C84.8398 30.621 84.0787 31.0158 83.25 31.1339C82.4212 31.252 81.5762 31.0861 80.8588 30.6644C80.1414 30.2428 79.596 29.5914 79.3156 28.8214C79.0352 28.0513 79.0371 27.2102 79.321 26.4414C79.6049 25.6726 80.1533 25.0236 80.8726 24.6051C81.5919 24.1865 82.4377 24.0242 83.2659 24.1459C84.094 24.2676 84.8533 24.6658 85.4144 25.2725C85.9754 25.8792 86.3035 26.657 86.3428 27.4733C86.3662 27.9368 86.2952 28.4003 86.1339 28.8369C85.9725 29.2734 85.724 29.6744 85.4028 30.0167H85.4036Z" fill="#284268"/>
<path d="M39.7277 74.3162C39.5417 74.4611 39.3545 74.6056 39.1661 74.7496C38.9221 74.9435 38.7659 75.223 38.7309 75.5281C38.6959 75.8332 38.7851 76.1394 38.9791 76.3811C39.1731 76.6227 39.4566 76.7804 39.7686 76.8203C40.0805 76.8601 40.3961 76.7789 40.6473 76.5942C40.8409 76.4458 41.0334 76.2973 41.2246 76.1486C41.4736 75.9549 41.6336 75.6725 41.6692 75.3636C41.7049 75.0548 41.6134 74.7448 41.4148 74.5018C41.2162 74.2588 40.9268 74.1027 40.6102 74.0679C40.2937 74.0331 39.976 74.1224 39.7269 74.3162H39.7277Z" fill="#284268"/>
<path d="M45.2602 69.6247C44.2976 70.5128 43.303 71.3897 42.3038 72.231C42.1843 72.3315 42.0864 72.454 42.0155 72.5915C41.9446 72.729 41.9022 72.8787 41.8906 73.0322C41.8673 73.3422 41.971 73.6485 42.1791 73.8838C42.3873 74.1191 42.6826 74.2641 43.0003 74.2869C43.318 74.3097 43.6319 74.2084 43.8731 74.0054C44.8997 73.1409 45.9216 72.2401 46.9106 71.3278C47.1421 71.1143 47.2771 70.8198 47.286 70.5091C47.2949 70.1984 47.177 69.8969 46.9581 69.6711C46.7393 69.4452 46.4375 69.3135 46.119 69.3048C45.8006 69.2961 45.4917 69.4112 45.2602 69.6247V69.6247Z" fill="#284268"/>
<path d="M54.9571 61.0304C54.8348 60.9333 54.694 60.8606 54.5429 60.8166C54.3918 60.7725 54.2332 60.758 54.0763 60.7737C53.9194 60.7895 53.7673 60.8352 53.6285 60.9083C53.4897 60.9815 53.367 61.0806 53.2675 61.1999C51.526 63.2888 49.6737 65.3154 47.7629 67.2236C47.5403 67.4459 47.4172 67.7453 47.4209 68.0561C47.4245 68.3669 47.5545 68.6636 47.7823 68.8808C48.0101 69.0981 48.317 69.2181 48.6356 69.2146C48.9541 69.211 49.2581 69.0841 49.4807 68.8619C51.4424 66.9031 53.344 64.8228 55.1315 62.6789C55.3324 62.4377 55.4269 62.1285 55.3942 61.8194C55.3615 61.5103 55.2043 61.2265 54.9571 61.0304V61.0304Z" fill="#284268"/>
</svg>
