<svg width="100" height="100" viewBox="0 0 100 100" fill="none" xmlns="http://www.w3.org/2000/svg">
<path d="M40.8751 34.353L35.8563 65.5844H43.8782L48.8939 34.353C48.8939 34.353 40.8751 34.353 40.8751 34.353ZM65.0721 47.075C62.2688 45.6906 60.5503 44.7563 60.5503 43.3404C60.5845 42.0531 62.0035 40.7342 65.1722 40.7342C67.7784 40.6687 69.694 41.2812 71.1472 41.8906L71.8752 42.2155L72.9658 35.6812C71.3813 35.0687 68.869 34.3938 65.7658 34.3938C57.844 34.3938 52.2658 38.5125 52.2312 44.4033C52.1658 48.7503 56.2249 51.1625 59.2626 52.6096C62.3658 54.094 63.4221 55.0564 63.4221 56.3753C63.3878 58.4002 60.9129 59.3345 58.6035 59.3345C55.4036 59.3345 53.6848 58.8533 51.0755 57.725L50.0192 57.2438L48.8974 64.0345C50.7818 64.8722 54.2472 65.6094 57.8443 65.6472C66.2631 65.6472 71.7412 61.5908 71.8101 55.3128C71.8375 51.8689 69.697 49.2311 65.0721 47.075ZM93.5314 34.4497H87.325C85.4125 34.4497 83.9593 34.9998 83.1312 36.9623L71.2154 65.5844H79.6342L81.9528 59.3876H91.3718L92.5748 65.6094H100L93.5314 34.4497ZM84.2876 53.134C84.4501 53.1497 87.519 43.0182 87.519 43.0182L89.9627 53.134C89.9627 53.134 85.8721 53.134 84.2876 53.134ZM29.1533 34.353L21.2939 55.5719L20.4377 51.3873C18.9845 46.5591 14.4284 41.3124 9.34381 38.7062L16.5407 65.5532H25.0284L37.641 34.3565H29.1533V34.353Z" fill="#00579F"/>
<path d="M17.7938 38.3811C17.1814 35.9997 15.2281 34.3936 12.5752 34.3594H0.128186L0 34.9372C9.70956 37.331 17.8593 44.6965 20.5032 51.6247L17.7938 38.3811Z" fill="#EFC75E"/>
</svg>
